<svg width="90" height="88" viewBox="0 0 90 88" fill="none" xmlns="http://www.w3.org/2000/svg">
<g clip-path="url(#clip0_56_2)">
<mask id="mask0_56_2" style="mask-type:luminance" maskUnits="userSpaceOnUse" x="0" y="0" width="90" height="88">
<path d="M0.0864258 0.237915H90.0001V87.8251H0.0864258V0.237915Z" fill="white"/>
</mask>
<g mask="url(#mask0_56_2)">
<mask id="mask1_56_2" style="mask-type:luminance" maskUnits="userSpaceOnUse" x="-19" y="-18" width="128" height="124">
<path d="M45.0304 -17.828L108.504 44.0024L45.0304 105.833L-18.4424 44.0024L45.0304 -17.828Z" fill="white"/>
</mask>
<g mask="url(#mask1_56_2)">
<mask id="mask2_56_2" style="mask-type:luminance" maskUnits="userSpaceOnUse" x="0" y="0" width="90" height="88">
<path d="M76.767 13.0869C59.2396 -3.98699 30.8217 -3.98699 13.2943 13.0869C-4.23318 30.1609 -4.23318 57.8435 13.2943 74.9174C30.8217 91.9918 59.2396 91.9918 76.767 74.9174C94.2945 57.8435 94.2945 30.1609 76.767 13.0869Z" fill="white"/>
</mask>
<g mask="url(#mask2_56_2)">
<path d="M45.0304 -17.828L108.504 44.0024L45.0304 105.833L-18.4424 44.0024L45.0304 -17.828Z" fill="#D6DB90"/>
</g>
</g>
</g>
<mask id="mask3_56_2" style="mask-type:luminance" maskUnits="userSpaceOnUse" x="30" y="39" width="6" height="11">
<path d="M30.6519 39.1931H35.8735V49.8624H30.6519V39.1931Z" fill="white"/>
</mask>
<g mask="url(#mask3_56_2)">
<mask id="mask4_56_2" style="mask-type:luminance" maskUnits="userSpaceOnUse" x="30" y="39" width="6" height="11">
<path d="M31.8733 39.2416L35.8203 49.3773L34.7005 49.7911L30.7529 39.6559L31.8733 39.2416Z" fill="white"/>
</mask>
<g mask="url(#mask4_56_2)">
<path d="M31.8733 39.2416L35.8208 49.3778L34.7005 49.7916L30.7529 39.6559L31.8733 39.2416Z" fill="#D6DB90"/>
</g>
</g>
<mask id="mask5_56_2" style="mask-type:luminance" maskUnits="userSpaceOnUse" x="28" y="36" width="6" height="12">
<path d="M28.9963 36.96H33.9632V47.133H28.9963V36.96Z" fill="white"/>
</mask>
<g mask="url(#mask5_56_2)">
<mask id="mask6_56_2" style="mask-type:luminance" maskUnits="userSpaceOnUse" x="29" y="37" width="5" height="11">
<path d="M30.1474 37.0278L33.9119 46.693L32.7916 47.1068L29.0271 37.4417L30.1474 37.0278Z" fill="white"/>
</mask>
<g mask="url(#mask6_56_2)">
<path d="M30.1474 37.0278L33.9124 46.6949L32.7921 47.1088L29.0271 37.4417L30.1474 37.0278Z" fill="#D6DB90"/>
</g>
</g>
<mask id="mask7_56_2" style="mask-type:luminance" maskUnits="userSpaceOnUse" x="28" y="39" width="5" height="7">
<path d="M28.4868 39.6893H32.8169V45.7683H28.4868V39.6893Z" fill="white"/>
</mask>
<g mask="url(#mask7_56_2)">
<mask id="mask8_56_2" style="mask-type:luminance" maskUnits="userSpaceOnUse" x="28" y="39" width="5" height="7">
<path d="M30.7136 39.7383L32.7399 44.9411L30.6041 45.73L28.5779 40.5277L30.7136 39.7383Z" fill="white"/>
</mask>
<g mask="url(#mask8_56_2)">
<path d="M30.7136 39.7383L32.7394 44.9392L30.6036 45.7281L28.5779 40.5277L30.7136 39.7383Z" fill="#D6DB90"/>
</g>
</g>
<mask id="mask9_56_2" style="mask-type:luminance" maskUnits="userSpaceOnUse" x="20" y="54" width="5" height="7">
<path d="M20.4634 54.3286H24.7935V60.5317H20.4634V54.3286Z" fill="white"/>
</mask>
<g mask="url(#mask9_56_2)">
<mask id="mask10_56_2" style="mask-type:luminance" maskUnits="userSpaceOnUse" x="20" y="54" width="5" height="7">
<path d="M22.6906 54.441L24.7169 59.6439L22.5812 60.4333L20.5549 55.2305L22.6906 54.441Z" fill="white"/>
</mask>
<g mask="url(#mask10_56_2)">
<path d="M22.6906 54.441L24.7164 59.6419L22.5807 60.4314L20.5549 55.2305L22.6906 54.441Z" fill="#D6DB90"/>
</g>
</g>
<mask id="mask11_56_2" style="mask-type:luminance" maskUnits="userSpaceOnUse" x="20" y="53" width="6" height="10">
<path d="M20.3359 53.212H25.8123V62.3926H20.3359V53.212Z" fill="white"/>
</mask>
<g mask="url(#mask11_56_2)">
<mask id="mask12_56_2" style="mask-type:luminance" maskUnits="userSpaceOnUse" x="20" y="53" width="6" height="10">
<path d="M22.5219 53.3153L25.7168 61.5179L23.5811 62.3068L20.3867 54.1047L22.5219 53.3153Z" fill="white"/>
</mask>
<g mask="url(#mask12_56_2)">
<path d="M22.5219 53.3153L25.7158 61.5145L23.5801 62.3039L20.3867 54.1047L22.5219 53.3153Z" fill="#D6DB90"/>
</g>
</g>
<mask id="mask13_56_2" style="mask-type:luminance" maskUnits="userSpaceOnUse" x="14" y="64" width="6" height="10">
<path d="M14.4775 64.7498H19.8265V73.8062H14.4775V64.7498Z" fill="white"/>
</mask>
<g mask="url(#mask13_56_2)">
<mask id="mask14_56_2" style="mask-type:luminance" maskUnits="userSpaceOnUse" x="14" y="64" width="6" height="10">
<path d="M16.6179 64.8026L19.8127 73.0047L17.677 73.7941L14.4827 65.5916L16.6179 64.8026Z" fill="white"/>
</mask>
<g mask="url(#mask14_56_2)">
<path d="M16.6179 64.8026L19.8112 73.0018L17.676 73.7907L14.4827 65.5916L16.6179 64.8026Z" fill="#D6DB90"/>
</g>
</g>
<mask id="mask15_56_2" style="mask-type:luminance" maskUnits="userSpaceOnUse" x="15" y="64" width="6" height="12">
<path d="M15.4966 64.6256H20.5908V75.2949H15.4966V64.6256Z" fill="white"/>
</mask>
<g mask="url(#mask15_56_2)">
<mask id="mask16_56_2" style="mask-type:luminance" maskUnits="userSpaceOnUse" x="15" y="64" width="6" height="12">
<path d="M16.6223 64.676L20.5698 74.8112L19.45 75.2251L15.5024 65.0899L16.6223 64.676Z" fill="white"/>
</mask>
<g mask="url(#mask16_56_2)">
<path d="M16.6223 64.676L20.5698 74.8117L19.45 75.2256L15.5024 65.0899L16.6223 64.676Z" fill="#D6DB90"/>
</g>
</g>
</g>
<g clip-path="url(#clip1_56_2)">
<mask id="mask17_56_2" style="mask-type:luminance" maskUnits="userSpaceOnUse" x="6" y="6" width="84" height="82">
<path d="M6.33008 6.4939H89.9997V87.8249H6.33008V6.4939Z" fill="white"/>
</mask>
<g mask="url(#mask17_56_2)">
<mask id="mask18_56_2" style="mask-type:luminance" maskUnits="userSpaceOnUse" x="-11" y="-11" width="119" height="116">
<path d="M48.1528 -10.2816L107.218 47.1324L48.1528 104.546L-10.9121 47.1324L48.1528 -10.2816Z" fill="white"/>
</mask>
<g mask="url(#mask18_56_2)">
<mask id="mask19_56_2" style="mask-type:luminance" maskUnits="userSpaceOnUse" x="6" y="6" width="84" height="82">
<path d="M77.6856 18.4252C61.3753 2.57084 34.9309 2.57084 18.6206 18.4252C2.31038 34.2795 2.31038 59.9848 18.6206 75.8391C34.9309 91.694 61.3753 91.694 77.6856 75.8391C93.9958 59.9848 93.9958 34.2795 77.6856 18.4252Z" fill="white"/>
</mask>
<g mask="url(#mask19_56_2)">
<path d="M48.1528 -10.2816L107.218 47.1324L48.1528 104.546L-10.9121 47.1324L48.1528 -10.2816Z" fill="#EEEEEE"/>
</g>
</g>
</g>
<mask id="mask20_56_2" style="mask-type:luminance" maskUnits="userSpaceOnUse" x="34" y="42" width="6" height="11">
<path d="M34.7729 42.6666H39.632V52.5738H34.7729V42.6666Z" fill="white"/>
</mask>
<g mask="url(#mask20_56_2)">
<mask id="mask21_56_2" style="mask-type:luminance" maskUnits="userSpaceOnUse" x="34" y="42" width="6" height="11">
<path d="M35.9095 42.7117L39.5824 52.1234L38.5404 52.5077L34.8669 43.0964L35.9095 42.7117Z" fill="white"/>
</mask>
<g mask="url(#mask21_56_2)">
<path d="M35.9095 42.7117L39.5829 52.1238L38.5404 52.5081L34.8669 43.0964L35.9095 42.7117Z" fill="#EEEEEE"/>
</g>
</g>
<mask id="mask22_56_2" style="mask-type:luminance" maskUnits="userSpaceOnUse" x="33" y="40" width="5" height="11">
<path d="M33.2324 40.593H37.8544V50.0394H33.2324V40.593Z" fill="white"/>
</mask>
<g mask="url(#mask22_56_2)">
<mask id="mask23_56_2" style="mask-type:luminance" maskUnits="userSpaceOnUse" x="33" y="40" width="5" height="11">
<path d="M34.3038 40.656L37.8068 49.6308L36.7643 50.0151L33.2612 41.0403L34.3038 40.656Z" fill="white"/>
</mask>
<g mask="url(#mask23_56_2)">
<path d="M34.3038 40.656L37.8073 49.6326L36.7647 50.0169L33.2612 41.0403L34.3038 40.656Z" fill="#EEEEEE"/>
</g>
</g>
<mask id="mask24_56_2" style="mask-type:luminance" maskUnits="userSpaceOnUse" x="32" y="43" width="5" height="6">
<path d="M32.7583 43.1274H36.7877V48.7722H32.7583V43.1274Z" fill="white"/>
</mask>
<g mask="url(#mask24_56_2)">
<mask id="mask25_56_2" style="mask-type:luminance" maskUnits="userSpaceOnUse" x="32" y="43" width="5" height="6">
<path d="M34.8304 43.1729L36.716 48.004L34.7286 48.7366L32.843 43.9059L34.8304 43.1729Z" fill="white"/>
</mask>
<g mask="url(#mask25_56_2)">
<path d="M34.8304 43.1729L36.7155 48.0022L34.7281 48.7348L32.843 43.9059L34.8304 43.1729Z" fill="#EEEEEE"/>
</g>
</g>
<mask id="mask26_56_2" style="mask-type:luminance" maskUnits="userSpaceOnUse" x="25" y="56" width="5" height="7">
<path d="M25.292 56.7209H29.3214V62.4809H25.292V56.7209Z" fill="white"/>
</mask>
<g mask="url(#mask26_56_2)">
<mask id="mask27_56_2" style="mask-type:luminance" maskUnits="userSpaceOnUse" x="25" y="56" width="5" height="7">
<path d="M27.3646 56.8253L29.2501 61.6565L27.2627 62.3895L25.3772 57.5584L27.3646 56.8253Z" fill="white"/>
</mask>
<g mask="url(#mask27_56_2)">
<path d="M27.3646 56.8253L29.2497 61.6547L27.2623 62.3877L25.3772 57.5584L27.3646 56.8253Z" fill="#EEEEEE"/>
</g>
</g>
<mask id="mask28_56_2" style="mask-type:luminance" maskUnits="userSpaceOnUse" x="25" y="55" width="6" height="10">
<path d="M25.1736 55.6842H30.2696V64.209H25.1736V55.6842Z" fill="white"/>
</mask>
<g mask="url(#mask28_56_2)">
<mask id="mask29_56_2" style="mask-type:luminance" maskUnits="userSpaceOnUse" x="25" y="55" width="6" height="10">
<path d="M27.2076 55.78L30.1806 63.3967L28.1932 64.1293L25.2207 56.5131L27.2076 55.78Z" fill="white"/>
</mask>
<g mask="url(#mask29_56_2)">
<path d="M27.2076 55.78L30.1797 63.3936L28.1923 64.1266L25.2207 56.5131L27.2076 55.78Z" fill="#EEEEEE"/>
</g>
</g>
<mask id="mask30_56_2" style="mask-type:luminance" maskUnits="userSpaceOnUse" x="19" y="66" width="6" height="9">
<path d="M19.7219 66.3978H24.6994V74.8074H19.7219V66.3978Z" fill="white"/>
</mask>
<g mask="url(#mask30_56_2)">
<mask id="mask31_56_2" style="mask-type:luminance" maskUnits="userSpaceOnUse" x="19" y="66" width="6" height="9">
<path d="M21.7135 66.4469L24.6865 74.0631L22.6991 74.7962L19.7266 67.1795L21.7135 66.4469Z" fill="white"/>
</mask>
<g mask="url(#mask31_56_2)">
<path d="M21.7135 66.4469L24.6851 74.0604L22.6982 74.793L19.7266 67.1795L21.7135 66.4469Z" fill="#EEEEEE"/>
</g>
</g>
<mask id="mask32_56_2" style="mask-type:luminance" maskUnits="userSpaceOnUse" x="20" y="66" width="6" height="11">
<path d="M20.6702 66.2826H25.4107V76.1898H20.6702V66.2826Z" fill="white"/>
</mask>
<g mask="url(#mask32_56_2)">
<mask id="mask33_56_2" style="mask-type:luminance" maskUnits="userSpaceOnUse" x="20" y="66" width="6" height="11">
<path d="M21.7174 66.3293L25.3908 75.7406L24.3487 76.1249L20.6753 66.7136L21.7174 66.3293Z" fill="white"/>
</mask>
<g mask="url(#mask33_56_2)">
<path d="M21.7174 66.3293L25.3908 75.7411L24.3487 76.1254L20.6753 66.7136L21.7174 66.3293Z" fill="#EEEEEE"/>
</g>
</g>
</g>
<g clip-path="url(#clip2_56_2)">
<mask id="mask34_56_2" style="mask-type:luminance" maskUnits="userSpaceOnUse" x="12" y="11" width="75" height="72">
<path d="M12.5703 11.4927H86.2496V82.8137H12.5703V11.4927Z" fill="white"/>
</mask>
<g mask="url(#mask34_56_2)">
<mask id="mask35_56_2" style="mask-type:luminance" maskUnits="userSpaceOnUse" x="-3" y="-4" width="105" height="102">
<path d="M49.3994 -3.21814L101.412 47.1295L49.3994 97.4771L-2.61304 47.1295L49.3994 -3.21814Z" fill="white"/>
</mask>
<g mask="url(#mask35_56_2)">
<mask id="mask36_56_2" style="mask-type:luminance" maskUnits="userSpaceOnUse" x="12" y="11" width="75" height="72">
<path d="M75.4058 21.9555C61.0431 8.05244 37.7562 8.05244 23.3934 21.9555C9.03065 35.8585 9.03065 58.4001 23.3934 72.3031C37.7562 86.2066 61.0431 86.2066 75.4058 72.3031C89.7686 58.4001 89.7686 35.8585 75.4058 21.9555Z" fill="white"/>
</mask>
<g mask="url(#mask36_56_2)">
<path d="M49.3994 -3.21814L101.412 47.1295L49.3994 97.4771L-2.61304 47.1295L49.3994 -3.21814Z" fill="#D6DB90"/>
</g>
</g>
</g>
<mask id="mask37_56_2" style="mask-type:luminance" maskUnits="userSpaceOnUse" x="36" y="35" width="28" height="27">
<path d="M36.7822 35.3337H63.0813V61.1952H36.7822V35.3337Z" fill="white"/>
</mask>
<g mask="url(#mask37_56_2)">
<mask id="mask38_56_2" style="mask-type:luminance" maskUnits="userSpaceOnUse" x="36" y="35" width="28" height="27">
<path d="M36.8687 45.7727L49.754 35.3506L63.0027 50.6983L50.1177 61.1205L36.8687 45.7727Z" fill="white"/>
</mask>
<g mask="url(#mask38_56_2)">
<path d="M36.8687 45.7727L49.754 35.3506L63.0023 50.6975L50.1173 61.1201L36.8687 45.7727Z" fill="#FA8A41"/>
</g>
</g>
<mask id="mask39_56_2" style="mask-type:luminance" maskUnits="userSpaceOnUse" x="29" y="49" width="21" height="21">
<path d="M29.9985 49.5776H49.6185V69.1758H29.9985V49.5776Z" fill="white"/>
</mask>
<g mask="url(#mask39_56_2)">
<mask id="mask40_56_2" style="mask-type:luminance" maskUnits="userSpaceOnUse" x="30" y="49" width="20" height="21">
<path d="M30.0229 56.9463L39.0457 49.6483L49.5218 61.7839L40.4991 69.0823L30.0229 56.9463Z" fill="white"/>
</mask>
<g mask="url(#mask40_56_2)">
<path d="M30.0229 56.9463L39.0457 49.6483L49.5304 61.7938L40.5076 69.0921L30.0229 56.9463Z" fill="#FA8A41"/>
</g>
</g>
<mask id="mask41_56_2" style="mask-type:luminance" maskUnits="userSpaceOnUse" x="25" y="62" width="15" height="13">
<path d="M25.9285 62.0033H39.078V74.934H25.9285V62.0033Z" fill="white"/>
</mask>
<g mask="url(#mask41_56_2)">
<mask id="mask42_56_2" style="mask-type:luminance" maskUnits="userSpaceOnUse" x="25" y="62" width="15" height="13">
<path d="M25.9639 67.2548L32.3976 62.0507L39.018 69.72L32.5843 74.9242L25.9639 67.2548Z" fill="white"/>
</mask>
<g mask="url(#mask42_56_2)">
<path d="M25.9639 67.2548L32.3976 62.0507L39.0127 69.7137L32.579 74.9178L25.9639 67.2548Z" fill="#FA8A41"/>
</g>
</g>
<mask id="mask43_56_2" style="mask-type:luminance" maskUnits="userSpaceOnUse" x="46" y="46" width="18" height="16">
<path d="M46.6965 46.6481H63.0813V61.0941H46.6965V46.6481Z" fill="white"/>
</mask>
<g mask="url(#mask43_56_2)">
<mask id="mask44_56_2" style="mask-type:luminance" maskUnits="userSpaceOnUse" x="46" y="46" width="18" height="16">
<path d="M46.7634 57.0907L59.5791 46.7246L63.0031 50.6909L50.1874 61.057L46.7634 57.0907Z" fill="white"/>
</mask>
<g mask="url(#mask44_56_2)">
<path d="M46.7634 57.0909L59.5844 46.7205L63.008 50.6871L50.1874 61.0572L46.7634 57.0909Z" fill="#F8741F"/>
</g>
</g>
<mask id="mask45_56_2" style="mask-type:luminance" maskUnits="userSpaceOnUse" x="38" y="59" width="12" height="11">
<path d="M38.2432 59.1747H49.5142V69.0748H38.2432V59.1747Z" fill="white"/>
</mask>
<g mask="url(#mask45_56_2)">
<mask id="mask46_56_2" style="mask-type:luminance" maskUnits="userSpaceOnUse" x="38" y="59" width="12" height="10">
<path d="M38.3254 66.4794L47.3189 59.2047L49.4917 61.7216L40.4979 68.9963L38.3254 66.4794Z" fill="white"/>
</mask>
<g mask="url(#mask46_56_2)">
<path d="M38.3254 66.4785L47.3242 59.1998L49.4966 61.7167L40.4979 68.9953L38.3254 66.4785Z" fill="#F8741F"/>
</g>
</g>
<mask id="mask47_56_2" style="mask-type:luminance" maskUnits="userSpaceOnUse" x="31" y="68" width="9" height="7">
<path d="M31.3552 68.2666H39.078V74.934H31.3552V68.2666Z" fill="white"/>
</mask>
<g mask="url(#mask47_56_2)">
<mask id="mask48_56_2" style="mask-type:luminance" maskUnits="userSpaceOnUse" x="31" y="68" width="9" height="7">
<path d="M31.4424 73.532L37.8431 68.3546L39.0184 69.716L32.6177 74.8934L31.4424 73.532Z" fill="white"/>
</mask>
<g mask="url(#mask48_56_2)">
<path d="M31.4424 73.532L37.8427 68.3551L39.018 69.7165L32.6177 74.8935L31.4424 73.532Z" fill="#F8741F"/>
</g>
</g>
<mask id="mask49_56_2" style="mask-type:luminance" maskUnits="userSpaceOnUse" x="37" y="43" width="5" height="9">
<path d="M37.6169 43.2134H41.8958V51.9012H37.6169V43.2134Z" fill="white"/>
</mask>
<g mask="url(#mask49_56_2)">
<mask id="mask50_56_2" style="mask-type:luminance" maskUnits="userSpaceOnUse" x="37" y="43" width="5" height="9">
<path d="M38.6178 43.2528L41.8522 51.5062L40.9345 51.8432L37.6997 43.5902L38.6178 43.2528Z" fill="white"/>
</mask>
<g mask="url(#mask50_56_2)">
<path d="M38.6178 43.2528L41.8526 51.5066L40.9345 51.8436L37.6997 43.5902L38.6178 43.2528Z" fill="#D6DB90"/>
</g>
</g>
<mask id="mask51_56_2" style="mask-type:luminance" maskUnits="userSpaceOnUse" x="36" y="41" width="5" height="9">
<path d="M36.2603 41.3949H40.3304V49.6786H36.2603V41.3949Z" fill="white"/>
</mask>
<g mask="url(#mask51_56_2)">
<mask id="mask52_56_2" style="mask-type:luminance" maskUnits="userSpaceOnUse" x="36" y="41" width="5" height="9">
<path d="M37.2037 41.4502L40.2885 49.3204L39.3704 49.6574L36.2856 41.7872L37.2037 41.4502Z" fill="white"/>
</mask>
<g mask="url(#mask52_56_2)">
<path d="M37.2037 41.4502L40.2889 49.322L39.3708 49.659L36.2856 41.7872L37.2037 41.4502Z" fill="#D6DB90"/>
</g>
</g>
<mask id="mask53_56_2" style="mask-type:luminance" maskUnits="userSpaceOnUse" x="35" y="43" width="5" height="6">
<path d="M35.8428 43.6174H39.3911V48.5675H35.8428V43.6174Z" fill="white"/>
</mask>
<g mask="url(#mask53_56_2)">
<mask id="mask54_56_2" style="mask-type:luminance" maskUnits="userSpaceOnUse" x="35" y="43" width="5" height="6">
<path d="M37.6676 43.6573L39.328 47.8939L37.5779 48.5364L35.9175 44.3002L37.6676 43.6573Z" fill="white"/>
</mask>
<g mask="url(#mask54_56_2)">
<path d="M37.6676 43.6573L39.3276 47.8923L37.5775 48.5348L35.9175 44.3002L37.6676 43.6573Z" fill="#D6DB90"/>
</g>
</g>
<mask id="mask55_56_2" style="mask-type:luminance" maskUnits="userSpaceOnUse" x="29" y="55" width="4" height="6">
<path d="M29.2681 55.538H32.8164V60.589H29.2681V55.538Z" fill="white"/>
</mask>
<g mask="url(#mask55_56_2)">
<mask id="mask56_56_2" style="mask-type:luminance" maskUnits="userSpaceOnUse" x="29" y="55" width="4" height="6">
<path d="M31.0931 55.6295L32.7535 59.8661L31.0034 60.5089L29.343 56.2723L31.0931 55.6295Z" fill="white"/>
</mask>
<g mask="url(#mask56_56_2)">
<path d="M31.0931 55.6295L32.7531 59.8645L31.003 60.5073L29.343 56.2723L31.0931 55.6295Z" fill="#D6DB90"/>
</g>
</g>
<mask id="mask57_56_2" style="mask-type:luminance" maskUnits="userSpaceOnUse" x="29" y="54" width="5" height="9">
<path d="M29.1638 54.6288H33.6514V62.1044H29.1638V54.6288Z" fill="white"/>
</mask>
<g mask="url(#mask57_56_2)">
<mask id="mask58_56_2" style="mask-type:luminance" maskUnits="userSpaceOnUse" x="29" y="54" width="5" height="9">
<path d="M30.955 54.7129L33.573 61.3921L31.8229 62.0346L29.2053 55.3557L30.955 54.7129Z" fill="white"/>
</mask>
<g mask="url(#mask58_56_2)">
<path d="M30.955 54.7129L33.5722 61.3894L31.8221 62.0322L29.2053 55.3557L30.955 54.7129Z" fill="#D6DB90"/>
</g>
</g>
<mask id="mask59_56_2" style="mask-type:luminance" maskUnits="userSpaceOnUse" x="24" y="64" width="5" height="8">
<path d="M24.363 64.0237H28.7462V71.3982H24.363V64.0237Z" fill="white"/>
</mask>
<g mask="url(#mask59_56_2)">
<mask id="mask60_56_2" style="mask-type:luminance" maskUnits="userSpaceOnUse" x="24" y="64" width="5" height="8">
<path d="M26.1171 64.0667L28.7351 70.7455L26.985 71.3883L24.3674 64.7091L26.1171 64.0667Z" fill="white"/>
</mask>
<g mask="url(#mask60_56_2)">
<path d="M26.1171 64.0667L28.7339 70.7431L26.9842 71.3856L24.3674 64.7091L26.1171 64.0667Z" fill="#D6DB90"/>
</g>
</g>
<mask id="mask61_56_2" style="mask-type:luminance" maskUnits="userSpaceOnUse" x="25" y="63" width="5" height="10">
<path d="M25.198 63.9227H29.3725V72.6106H25.198V63.9227Z" fill="white"/>
</mask>
<g mask="url(#mask61_56_2)">
<mask id="mask62_56_2" style="mask-type:luminance" maskUnits="userSpaceOnUse" x="25" y="63" width="5" height="10">
<path d="M26.1203 63.9637L29.3551 72.2167L28.4374 72.5537L25.2026 64.3007L26.1203 63.9637Z" fill="white"/>
</mask>
<g mask="url(#mask62_56_2)">
<path d="M26.1203 63.9637L29.3551 72.2171L28.4374 72.5541L25.2026 64.3007L26.1203 63.9637Z" fill="#D6DB90"/>
</g>
</g>
<mask id="mask63_56_2" style="mask-type:luminance" maskUnits="userSpaceOnUse" x="55" y="18" width="11" height="23">
<path d="M55.6716 18.4631H65.4816V40.2837H55.6716V18.4631Z" fill="white"/>
</mask>
<g mask="url(#mask63_56_2)">
<mask id="mask64_56_2" style="mask-type:luminance" maskUnits="userSpaceOnUse" x="48" y="18" width="36" height="33">
<path d="M60.5791 18.5314L83.2288 34.2133L71.0784 50.6565L48.4287 34.9749L60.5791 18.5314Z" fill="white"/>
</mask>
<g mask="url(#mask64_56_2)">
<mask id="mask65_56_2" style="mask-type:luminance" maskUnits="userSpaceOnUse" x="48" y="18" width="36" height="33">
<path d="M60.5791 18.5314L83.2288 34.2133L71.0784 50.6565L48.4287 34.9749L60.5791 18.5314Z" fill="white"/>
</mask>
<g mask="url(#mask65_56_2)">
<mask id="mask66_56_2" style="mask-type:luminance" maskUnits="userSpaceOnUse" x="48" y="18" width="36" height="33">
<path d="M60.5791 18.5314L83.2288 34.2133L71.0784 50.6565L48.4287 34.9749L60.5791 18.5314Z" fill="white"/>
</mask>
<g mask="url(#mask66_56_2)">
<path d="M56.5072 40.2221C62.3462 32.7016 60.7747 27.849 60.7747 27.849C62.1045 31.4206 60.5431 36.1126 58.356 39.6274C72.9104 29.3363 60.5818 18.5365 60.5765 18.5333C60.5863 20.1816 57.9455 23.4277 56.9622 25.1048C55.74 27.1896 55.4608 29.7195 56.1016 31.9822C56.4995 33.3882 57.8896 36.8497 56.5072 40.2221Z" fill="#36A03D"/>
</g>
</g>
</g>
</g>
<mask id="mask67_56_2" style="mask-type:luminance" maskUnits="userSpaceOnUse" x="58" y="36" width="16" height="9">
<path d="M58.5938 36.5459H73.7262V44.3245H58.5938V36.5459Z" fill="white"/>
</mask>
<g mask="url(#mask67_56_2)">
<mask id="mask68_56_2" style="mask-type:luminance" maskUnits="userSpaceOnUse" x="48" y="18" width="36" height="33">
<path d="M60.5791 18.5314L83.2288 34.2133L71.0784 50.6565L48.4287 34.9749L60.5791 18.5314Z" fill="white"/>
</mask>
<g mask="url(#mask68_56_2)">
<mask id="mask69_56_2" style="mask-type:luminance" maskUnits="userSpaceOnUse" x="48" y="18" width="36" height="33">
<path d="M60.5791 18.5314L83.2288 34.2133L71.0784 50.6565L48.4287 34.9749L60.5791 18.5314Z" fill="white"/>
</mask>
<g mask="url(#mask69_56_2)">
<mask id="mask70_56_2" style="mask-type:luminance" maskUnits="userSpaceOnUse" x="48" y="18" width="36" height="33">
<path d="M60.5791 18.5314L83.2288 34.2133L71.0784 50.6565L48.4287 34.9749L60.5791 18.5314Z" fill="white"/>
</mask>
<g mask="url(#mask70_56_2)">
<path d="M58.6887 41.4529C65.9374 42.329 69.5207 39.3007 69.5207 39.3007C66.917 42.3092 63.1261 43.0089 59.9407 42.9414C73.0323 48.011 73.7054 37.3754 73.7054 37.3754C72.4013 37.9034 67.4005 36.6789 65.8281 36.6402C60.9109 36.5187 59.2207 39.8291 58.6887 41.4529Z" fill="#7ECB2A"/>
</g>
</g>
</g>
</g>
</g>
<defs>
<clipPath id="clip0_56_2">
<rect width="90" height="87.701" fill="white" transform="translate(0 0.124146)"/>
</clipPath>
<clipPath id="clip1_56_2">
<rect width="83.75" height="81.4366" fill="white" transform="translate(6.24976 6.38831)"/>
</clipPath>
<clipPath id="clip2_56_2">
<rect width="73.75" height="71.4136" fill="white" transform="translate(12.4995 11.4)"/>
</clipPath>
</defs>
</svg>
