<svg width="273" height="75" viewBox="0 0 273 75" fill="none" xmlns="http://www.w3.org/2000/svg">
<g clip-path="url(#clip0_75_3)">
<mask id="mask0_75_3" style="mask-type:luminance" maskUnits="userSpaceOnUse" x="0" y="0" width="78" height="75">
<path d="M0.863037 0.097168H77.3145V74.82H0.863037V0.097168Z" fill="white"/>
</mask>
<g mask="url(#mask0_75_3)">
<mask id="mask1_75_3" style="mask-type:luminance" maskUnits="userSpaceOnUse" x="-15" y="-16" width="109" height="107">
<path d="M39.0778 -15.3154L93.0477 37.4337L39.0778 90.1827L-14.8916 37.4337L39.0778 -15.3154Z" fill="white"/>
</mask>
<g mask="url(#mask1_75_3)">
<mask id="mask2_75_3" style="mask-type:luminance" maskUnits="userSpaceOnUse" x="0" y="0" width="78" height="75">
<path d="M66.0628 11.0589C51.1596 -3.50727 26.9966 -3.50727 12.0934 11.0589C-2.80978 25.6251 -2.80978 49.2418 12.0934 63.808C26.9966 78.3746 51.1596 78.3746 66.0628 63.808C80.966 49.2418 80.966 25.6251 66.0628 11.0589Z" fill="white"/>
</mask>
<g mask="url(#mask2_75_3)">
<path d="M39.0778 -15.3154L93.0477 37.4337L39.0778 90.1827L-14.8916 37.4337L39.0778 -15.3154Z" fill="#D6DB90"/>
</g>
</g>
</g>
<mask id="mask3_75_3" style="mask-type:luminance" maskUnits="userSpaceOnUse" x="26" y="33" width="6" height="10">
<path d="M26.8521 33.3306H31.2919V42.4328H26.8521V33.3306Z" fill="white"/>
</mask>
<g mask="url(#mask3_75_3)">
<mask id="mask4_75_3" style="mask-type:luminance" maskUnits="userSpaceOnUse" x="26" y="33" width="6" height="10">
<path d="M27.8906 33.3721L31.2467 42.0191L30.2945 42.3722L26.938 33.7256L27.8906 33.3721Z" fill="white"/>
</mask>
<g mask="url(#mask4_75_3)">
<path d="M27.8906 33.3721L31.2471 42.0195L30.2945 42.3726L26.938 33.7256L27.8906 33.3721Z" fill="#D6DB90"/>
</g>
</g>
<mask id="mask5_75_3" style="mask-type:luminance" maskUnits="userSpaceOnUse" x="25" y="31" width="5" height="10">
<path d="M25.4443 31.4258H29.6676V40.1046H25.4443V31.4258Z" fill="white"/>
</mask>
<g mask="url(#mask5_75_3)">
<mask id="mask6_75_3" style="mask-type:luminance" maskUnits="userSpaceOnUse" x="25" y="31" width="5" height="10">
<path d="M26.4231 31.4834L29.6239 39.729L28.6713 40.082L25.4705 31.8365L26.4231 31.4834Z" fill="white"/>
</mask>
<g mask="url(#mask6_75_3)">
<path d="M26.4231 31.4834L29.6243 39.7306L28.6717 40.0837L25.4705 31.8365L26.4231 31.4834Z" fill="#D6DB90"/>
</g>
</g>
<mask id="mask7_75_3" style="mask-type:luminance" maskUnits="userSpaceOnUse" x="25" y="33" width="4" height="6">
<path d="M25.0112 33.7539H28.693V38.9401H25.0112V33.7539Z" fill="white"/>
</mask>
<g mask="url(#mask7_75_3)">
<mask id="mask8_75_3" style="mask-type:luminance" maskUnits="userSpaceOnUse" x="25" y="33" width="4" height="6">
<path d="M26.9046 33.7959L28.6274 38.2345L26.8115 38.9076L25.0886 34.4694L26.9046 33.7959Z" fill="white"/>
</mask>
<g mask="url(#mask8_75_3)">
<path d="M26.9046 33.7959L28.627 38.2329L26.8111 38.906L25.0886 34.4694L26.9046 33.7959Z" fill="#D6DB90"/>
</g>
</g>
<mask id="mask9_75_3" style="mask-type:luminance" maskUnits="userSpaceOnUse" x="18" y="46" width="4" height="6">
<path d="M18.189 46.2432H21.8708V51.5351H18.189V46.2432Z" fill="white"/>
</mask>
<g mask="url(#mask9_75_3)">
<mask id="mask10_75_3" style="mask-type:luminance" maskUnits="userSpaceOnUse" x="18" y="46" width="4" height="6">
<path d="M20.0828 46.3389L21.8057 50.7775L19.9897 51.451L18.2668 47.0124L20.0828 46.3389Z" fill="white"/>
</mask>
<g mask="url(#mask10_75_3)">
<path d="M20.0828 46.3389L21.8052 50.7759L19.9893 51.4494L18.2668 47.0124L20.0828 46.3389Z" fill="#D6DB90"/>
</g>
</g>
<mask id="mask11_75_3" style="mask-type:luminance" maskUnits="userSpaceOnUse" x="18" y="45" width="5" height="9">
<path d="M18.0808 45.2905H22.7372V53.1227H18.0808V45.2905Z" fill="white"/>
</mask>
<g mask="url(#mask11_75_3)">
<mask id="mask12_75_3" style="mask-type:luminance" maskUnits="userSpaceOnUse" x="18" y="45" width="5" height="9">
<path d="M19.9393 45.3784L22.6558 52.3762L20.8399 53.0493L18.1238 46.0519L19.9393 45.3784Z" fill="white"/>
</mask>
<g mask="url(#mask12_75_3)">
<path d="M19.9393 45.3784L22.655 52.3733L20.839 53.0468L18.1238 46.0519L19.9393 45.3784Z" fill="#D6DB90"/>
</g>
</g>
<mask id="mask13_75_3" style="mask-type:luminance" maskUnits="userSpaceOnUse" x="13" y="55" width="5" height="8">
<path d="M13.0996 55.1338H17.6477V62.8601H13.0996V55.1338Z" fill="white"/>
</mask>
<g mask="url(#mask13_75_3)">
<mask id="mask14_75_3" style="mask-type:luminance" maskUnits="userSpaceOnUse" x="13" y="55" width="5" height="8">
<path d="M14.9195 55.1787L17.636 62.1761L15.8201 62.8496L13.104 55.8518L14.9195 55.1787Z" fill="white"/>
</mask>
<g mask="url(#mask14_75_3)">
<path d="M14.9195 55.1787L17.6348 62.1736L15.8192 62.8467L13.104 55.8518L14.9195 55.1787Z" fill="#D6DB90"/>
</g>
</g>
<mask id="mask15_75_3" style="mask-type:luminance" maskUnits="userSpaceOnUse" x="13" y="55" width="6" height="10">
<path d="M13.9658 55.0278H18.2973V64.13H13.9658V55.0278Z" fill="white"/>
</mask>
<g mask="url(#mask15_75_3)">
<mask id="mask16_75_3" style="mask-type:luminance" maskUnits="userSpaceOnUse" x="13" y="55" width="6" height="10">
<path d="M14.9229 55.0708L18.2794 63.7174L17.3272 64.0705L13.9707 55.4239L14.9229 55.0708Z" fill="white"/>
</mask>
<g mask="url(#mask16_75_3)">
<path d="M14.9229 55.0708L18.2794 63.7178L17.3272 64.0709L13.9707 55.4239L14.9229 55.0708Z" fill="#D6DB90"/>
</g>
</g>
</g>
<g clip-path="url(#clip1_75_3)">
<mask id="mask17_75_3" style="mask-type:luminance" maskUnits="userSpaceOnUse" x="6" y="5" width="72" height="70">
<path d="M6.17163 5.43457H77.314V74.82H6.17163V5.43457Z" fill="white"/>
</mask>
<g mask="url(#mask17_75_3)">
<mask id="mask18_75_3" style="mask-type:luminance" maskUnits="userSpaceOnUse" x="-9" y="-9" width="101" height="99">
<path d="M41.7328 -8.87695L91.9547 40.1043L41.7328 89.0856L-8.48877 40.1043L41.7328 -8.87695Z" fill="white"/>
</mask>
<g mask="url(#mask18_75_3)">
<mask id="mask19_75_3" style="mask-type:luminance" maskUnits="userSpaceOnUse" x="6" y="5" width="72" height="70">
<path d="M66.8436 15.6135C52.9754 2.0878 30.4903 2.0878 16.6221 15.6135C2.75389 29.1393 2.75389 51.0691 16.6221 64.5948C30.4903 78.121 52.9754 78.121 66.8436 64.5948C80.7119 51.0691 80.7119 29.1393 66.8436 15.6135Z" fill="white"/>
</mask>
<g mask="url(#mask19_75_3)">
<path d="M41.7328 -8.87695L91.9547 40.1043L41.7328 89.0856L-8.48877 40.1043L41.7328 -8.87695Z" fill="#EEEEEE"/>
</g>
</g>
</g>
<mask id="mask20_75_3" style="mask-type:luminance" maskUnits="userSpaceOnUse" x="30" y="36" width="5" height="9">
<path d="M30.3562 36.2944H34.4877V44.7465H30.3562V36.2944Z" fill="white"/>
</mask>
<g mask="url(#mask20_75_3)">
<mask id="mask21_75_3" style="mask-type:luminance" maskUnits="userSpaceOnUse" x="30" y="36" width="5" height="9">
<path d="M31.3225 36.333L34.4455 44.3624L33.5595 44.6902L30.436 36.6612L31.3225 36.333Z" fill="white"/>
</mask>
<g mask="url(#mask21_75_3)">
<path d="M31.3225 36.333L34.4459 44.3628L33.5595 44.6906L30.436 36.6612L31.3225 36.333Z" fill="#EEEEEE"/>
</g>
</g>
<mask id="mask22_75_3" style="mask-type:luminance" maskUnits="userSpaceOnUse" x="29" y="34" width="4" height="9">
<path d="M29.0461 34.5254H32.9761V42.5843H29.0461V34.5254Z" fill="white"/>
</mask>
<g mask="url(#mask22_75_3)">
<mask id="mask23_75_3" style="mask-type:luminance" maskUnits="userSpaceOnUse" x="29" y="34" width="4" height="9">
<path d="M29.957 34.5791L32.9356 42.2357L32.0491 42.5636L29.0706 34.907L29.957 34.5791Z" fill="white"/>
</mask>
<g mask="url(#mask23_75_3)">
<path d="M29.957 34.5791L32.936 42.2372L32.0495 42.5651L29.0706 34.907L29.957 34.5791Z" fill="#EEEEEE"/>
</g>
</g>
<mask id="mask24_75_3" style="mask-type:luminance" maskUnits="userSpaceOnUse" x="28" y="36" width="5" height="6">
<path d="M28.6431 36.6875H32.0692V41.5032H28.6431V36.6875Z" fill="white"/>
</mask>
<g mask="url(#mask24_75_3)">
<mask id="mask25_75_3" style="mask-type:luminance" maskUnits="userSpaceOnUse" x="28" y="36" width="5" height="6">
<path d="M30.4047 36.7261L32.0079 40.8477L30.3181 41.4727L28.7148 37.3515L30.4047 36.7261Z" fill="white"/>
</mask>
<g mask="url(#mask25_75_3)">
<path d="M30.4047 36.7261L32.0075 40.8461L30.3177 41.4711L28.7148 37.3515L30.4047 36.7261Z" fill="#EEEEEE"/>
</g>
</g>
<mask id="mask26_75_3" style="mask-type:luminance" maskUnits="userSpaceOnUse" x="22" y="48" width="4" height="6">
<path d="M22.2947 48.2842H25.7208V53.1982H22.2947V48.2842Z" fill="white"/>
</mask>
<g mask="url(#mask26_75_3)">
<mask id="mask27_75_3" style="mask-type:luminance" maskUnits="userSpaceOnUse" x="22" y="48" width="4" height="6">
<path d="M24.0568 48.373L25.66 52.4947L23.9702 53.12L22.3669 48.9984L24.0568 48.373Z" fill="white"/>
</mask>
<g mask="url(#mask27_75_3)">
<path d="M24.0568 48.373L25.6596 52.4931L23.9698 53.1185L22.3669 48.9984L24.0568 48.373Z" fill="#EEEEEE"/>
</g>
</g>
<mask id="mask28_75_3" style="mask-type:luminance" maskUnits="userSpaceOnUse" x="22" y="47" width="5" height="8">
<path d="M22.1938 47.3999H26.5269V54.6726H22.1938V47.3999Z" fill="white"/>
</mask>
<g mask="url(#mask28_75_3)">
<mask id="mask29_75_3" style="mask-type:luminance" maskUnits="userSpaceOnUse" x="22" y="47" width="5" height="8">
<path d="M23.9233 47.4814L26.4512 53.9794L24.7614 54.6044L22.2339 48.1068L23.9233 47.4814Z" fill="white"/>
</mask>
<g mask="url(#mask29_75_3)">
<path d="M23.9233 47.4814L26.4504 53.9767L24.7606 54.6021L22.2339 48.1068L23.9233 47.4814Z" fill="#EEEEEE"/>
</g>
</g>
<mask id="mask30_75_3" style="mask-type:luminance" maskUnits="userSpaceOnUse" x="17" y="56" width="5" height="8">
<path d="M17.5586 56.54H21.7909V63.7145H17.5586V56.54Z" fill="white"/>
</mask>
<g mask="url(#mask30_75_3)">
<mask id="mask31_75_3" style="mask-type:luminance" maskUnits="userSpaceOnUse" x="17" y="56" width="5" height="8">
<path d="M19.2519 56.5815L21.7798 63.0791L20.09 63.7045L17.5625 57.2065L19.2519 56.5815Z" fill="white"/>
</mask>
<g mask="url(#mask31_75_3)">
<path d="M19.2519 56.5815L21.7786 63.0768L20.0892 63.7018L17.5625 57.2065L19.2519 56.5815Z" fill="#EEEEEE"/>
</g>
</g>
<mask id="mask32_75_3" style="mask-type:luminance" maskUnits="userSpaceOnUse" x="18" y="56" width="5" height="9">
<path d="M18.3647 56.4414H22.3955V64.8935H18.3647V56.4414Z" fill="white"/>
</mask>
<g mask="url(#mask32_75_3)">
<mask id="mask33_75_3" style="mask-type:luminance" maskUnits="userSpaceOnUse" x="18" y="56" width="5" height="9">
<path d="M19.2552 56.481L22.3786 64.5099L21.4926 64.8378L18.3691 56.8088L19.2552 56.481Z" fill="white"/>
</mask>
<g mask="url(#mask33_75_3)">
<path d="M19.2552 56.481L22.3786 64.5103L21.4926 64.8382L18.3691 56.8088L19.2552 56.481Z" fill="#EEEEEE"/>
</g>
</g>
</g>
<g clip-path="url(#clip2_75_3)">
<mask id="mask34_75_3" style="mask-type:luminance" maskUnits="userSpaceOnUse" x="11" y="10" width="66" height="64">
<path d="M11.063 10.083H76.9997V74H11.063V10.083Z" fill="white"/>
</mask>
<g mask="url(#mask34_75_3)">
<mask id="mask35_75_3" style="mask-type:luminance" maskUnits="userSpaceOnUse" x="-3" y="-4" width="94" height="92">
<path d="M44.022 -3.10059L90.5691 42.0203L44.022 87.1413L-2.52466 42.0203L44.022 -3.10059Z" fill="white"/>
</mask>
<g mask="url(#mask35_75_3)">
<mask id="mask36_75_3" style="mask-type:luminance" maskUnits="userSpaceOnUse" x="11" y="10" width="66" height="64">
<path d="M67.2957 19.4595C54.4422 6.99981 33.6024 6.99981 20.749 19.4595C7.89552 31.9193 7.89552 52.1207 20.749 64.5805C33.6024 77.0406 54.4422 77.0406 67.2957 64.5805C80.1491 52.1207 80.1491 31.9193 67.2957 19.4595Z" fill="white"/>
</mask>
<g mask="url(#mask36_75_3)">
<path d="M44.022 -3.10059L90.5691 42.0203L44.022 87.1413L-2.52466 42.0203L44.022 -3.10059Z" fill="#D6DB90"/>
</g>
</g>
</g>
<mask id="mask37_75_3" style="mask-type:luminance" maskUnits="userSpaceOnUse" x="32" y="31" width="25" height="24">
<path d="M32.731 31.4492H56.2664V54.6259H32.731V31.4492Z" fill="white"/>
</mask>
<g mask="url(#mask37_75_3)">
<mask id="mask38_75_3" style="mask-type:luminance" maskUnits="userSpaceOnUse" x="32" y="31" width="25" height="24">
<path d="M32.8083 40.8046L44.3397 31.4644L56.1961 45.2188L44.6651 54.559L32.8083 40.8046Z" fill="white"/>
</mask>
<g mask="url(#mask38_75_3)">
<path d="M32.8083 40.8046L44.3397 31.4644L56.1957 45.2181L44.6647 54.5587L32.8083 40.8046Z" fill="#FA8A41"/>
</g>
</g>
<mask id="mask39_75_3" style="mask-type:luminance" maskUnits="userSpaceOnUse" x="26" y="44" width="19" height="18">
<path d="M26.6602 44.2144H44.2184V61.7779H26.6602V44.2144Z" fill="white"/>
</mask>
<g mask="url(#mask39_75_3)">
<mask id="mask40_75_3" style="mask-type:luminance" maskUnits="userSpaceOnUse" x="26" y="44" width="19" height="18">
<path d="M26.6821 50.8177L34.7568 44.2773L44.132 55.1531L36.0574 61.6938L26.6821 50.8177Z" fill="white"/>
</mask>
<g mask="url(#mask40_75_3)">
<path d="M26.6821 50.8177L34.7568 44.2773L44.1396 55.1619L36.065 61.7027L26.6821 50.8177Z" fill="#FA8A41"/>
</g>
</g>
<mask id="mask41_75_3" style="mask-type:luminance" maskUnits="userSpaceOnUse" x="23" y="55" width="12" height="12">
<path d="M23.0178 55.3501H34.7856V66.9384H23.0178V55.3501Z" fill="white"/>
</mask>
<g mask="url(#mask41_75_3)">
<mask id="mask42_75_3" style="mask-type:luminance" maskUnits="userSpaceOnUse" x="23" y="55" width="12" height="12">
<path d="M23.0493 60.0565L28.807 55.3926L34.7317 62.2657L28.974 66.9296L23.0493 60.0565Z" fill="white"/>
</mask>
<g mask="url(#mask42_75_3)">
<path d="M23.0493 60.0565L28.807 55.3926L34.7269 62.2601L28.9693 66.924L23.0493 60.0565Z" fill="#FA8A41"/>
</g>
</g>
<mask id="mask43_75_3" style="mask-type:luminance" maskUnits="userSpaceOnUse" x="41" y="41" width="16" height="14">
<path d="M41.6033 41.5889H56.2662V54.5352H41.6033V41.5889Z" fill="white"/>
</mask>
<g mask="url(#mask43_75_3)">
<mask id="mask44_75_3" style="mask-type:luminance" maskUnits="userSpaceOnUse" x="41" y="41" width="16" height="14">
<path d="M41.6626 50.9472L53.1315 41.6572L56.1957 45.2117L44.7267 54.5017L41.6626 50.9472Z" fill="white"/>
</mask>
<g mask="url(#mask44_75_3)">
<path d="M41.6626 50.9477L53.1363 41.6538L56.2001 45.2087L44.7267 54.5022L41.6626 50.9477Z" fill="#F8741F"/>
</g>
</g>
<mask id="mask45_75_3" style="mask-type:luminance" maskUnits="userSpaceOnUse" x="34" y="52" width="11" height="10">
<path d="M34.0383 52.8149H44.125V61.6873H34.0383V52.8149Z" fill="white"/>
</mask>
<g mask="url(#mask45_75_3)">
<mask id="mask46_75_3" style="mask-type:luminance" maskUnits="userSpaceOnUse" x="34" y="52" width="11" height="10">
<path d="M34.1118 59.3613L42.1602 52.8418L44.1047 55.0974L36.056 61.6169L34.1118 59.3613Z" fill="white"/>
</mask>
<g mask="url(#mask46_75_3)">
<path d="M34.1118 59.3604L42.1649 52.8374L44.1091 55.093L36.056 61.616L34.1118 59.3604Z" fill="#F8741F"/>
</g>
</g>
<mask id="mask47_75_3" style="mask-type:luminance" maskUnits="userSpaceOnUse" x="27" y="60" width="8" height="7">
<path d="M27.8743 60.9629H34.7855V66.9381H27.8743V60.9629Z" fill="white"/>
</mask>
<g mask="url(#mask47_75_3)">
<mask id="mask48_75_3" style="mask-type:luminance" maskUnits="userSpaceOnUse" x="27" y="61" width="8" height="6">
<path d="M27.9524 65.6819L33.6805 61.042L34.7323 62.2621L29.0042 66.9019L27.9524 65.6819Z" fill="white"/>
</mask>
<g mask="url(#mask48_75_3)">
<path d="M27.9524 65.682L33.6801 61.0425L34.7319 62.2626L29.0042 66.9021L27.9524 65.682Z" fill="#F8741F"/>
</g>
</g>
<mask id="mask49_75_3" style="mask-type:luminance" maskUnits="userSpaceOnUse" x="33" y="38" width="5" height="9">
<path d="M33.478 38.5107H37.3072V46.2967H33.478V38.5107Z" fill="white"/>
</mask>
<g mask="url(#mask49_75_3)">
<mask id="mask50_75_3" style="mask-type:luminance" maskUnits="userSpaceOnUse" x="33" y="38" width="5" height="9">
<path d="M34.3733 38.5459L37.2678 45.9425L36.4466 46.2445L33.5518 38.8483L34.3733 38.5459Z" fill="white"/>
</mask>
<g mask="url(#mask50_75_3)">
<path d="M34.3733 38.5459L37.2682 45.9428L36.4466 46.2448L33.5518 38.8483L34.3733 38.5459Z" fill="#D6DB90"/>
</g>
</g>
<mask id="mask51_75_3" style="mask-type:luminance" maskUnits="userSpaceOnUse" x="32" y="36" width="4" height="9">
<path d="M32.2639 36.8809H35.9063V44.3046H32.2639V36.8809Z" fill="white"/>
</mask>
<g mask="url(#mask51_75_3)">
<mask id="mask52_75_3" style="mask-type:luminance" maskUnits="userSpaceOnUse" x="32" y="36" width="4" height="9">
<path d="M33.1082 36.9302L35.8688 43.9833L35.0472 44.2854L32.2866 37.2322L33.1082 36.9302Z" fill="white"/>
</mask>
<g mask="url(#mask52_75_3)">
<path d="M33.1082 36.9302L35.8692 43.9848L35.0476 44.2868L32.2866 37.2322L33.1082 36.9302Z" fill="#D6DB90"/>
</g>
</g>
<mask id="mask53_75_3" style="mask-type:luminance" maskUnits="userSpaceOnUse" x="31" y="38" width="5" height="6">
<path d="M31.8904 38.873H35.0658V43.3092H31.8904V38.873Z" fill="white"/>
</mask>
<g mask="url(#mask53_75_3)">
<mask id="mask54_75_3" style="mask-type:luminance" maskUnits="userSpaceOnUse" x="31" y="38" width="5" height="6">
<path d="M33.523 38.9087L35.0089 42.7055L33.4427 43.2812L31.9568 39.4848L33.523 38.9087Z" fill="white"/>
</mask>
<g mask="url(#mask54_75_3)">
<path d="M33.523 38.9087L35.0085 42.704L33.4423 43.2798L31.9568 39.4848L33.523 38.9087Z" fill="#D6DB90"/>
</g>
</g>
<mask id="mask55_75_3" style="mask-type:luminance" maskUnits="userSpaceOnUse" x="26" y="49" width="4" height="6">
<path d="M26.0063 49.5557H29.1818V54.0824H26.0063V49.5557Z" fill="white"/>
</mask>
<g mask="url(#mask55_75_3)">
<mask id="mask56_75_3" style="mask-type:luminance" maskUnits="userSpaceOnUse" x="26" y="49" width="4" height="6">
<path d="M27.6394 49.6377L29.1254 53.4345L27.5592 54.0106L26.0732 50.2138L27.6394 49.6377Z" fill="white"/>
</mask>
<g mask="url(#mask56_75_3)">
<path d="M27.6394 49.6377L29.125 53.433L27.5588 54.0091L26.0732 50.2138L27.6394 49.6377Z" fill="#D6DB90"/>
</g>
</g>
<mask id="mask57_75_3" style="mask-type:luminance" maskUnits="userSpaceOnUse" x="25" y="48" width="5" height="8">
<path d="M25.9131 48.7412H29.9291V55.4407H25.9131V48.7412Z" fill="white"/>
</mask>
<g mask="url(#mask57_75_3)">
<mask id="mask58_75_3" style="mask-type:luminance" maskUnits="userSpaceOnUse" x="25" y="48" width="5" height="8">
<path d="M27.516 48.8164L29.8589 54.8023L28.2927 55.378L25.9502 49.3925L27.516 48.8164Z" fill="white"/>
</mask>
<g mask="url(#mask58_75_3)">
<path d="M27.516 48.8164L29.8582 54.7998L28.292 55.3759L25.9502 49.3925L27.516 48.8164Z" fill="#D6DB90"/>
</g>
</g>
<mask id="mask59_75_3" style="mask-type:luminance" maskUnits="userSpaceOnUse" x="21" y="57" width="5" height="7">
<path d="M21.6169 57.1606H25.5395V63.7696H21.6169V57.1606Z" fill="white"/>
</mask>
<g mask="url(#mask59_75_3)">
<mask id="mask60_75_3" style="mask-type:luminance" maskUnits="userSpaceOnUse" x="21" y="57" width="5" height="7">
<path d="M23.1867 57.1992L25.5296 63.1847L23.9634 63.7608L21.6208 57.775L23.1867 57.1992Z" fill="white"/>
</mask>
<g mask="url(#mask60_75_3)">
<path d="M23.1867 57.1992L25.5285 63.1826L23.9627 63.7583L21.6208 57.775L23.1867 57.1992Z" fill="#D6DB90"/>
</g>
</g>
<mask id="mask61_75_3" style="mask-type:luminance" maskUnits="userSpaceOnUse" x="22" y="57" width="5" height="8">
<path d="M22.364 57.0703H26.0998V64.8562H22.364V57.0703Z" fill="white"/>
</mask>
<g mask="url(#mask61_75_3)">
<mask id="mask62_75_3" style="mask-type:luminance" maskUnits="userSpaceOnUse" x="22" y="57" width="5" height="8">
<path d="M23.1894 57.1069L26.0843 64.5031L25.263 64.8051L22.3682 57.4089L23.1894 57.1069Z" fill="white"/>
</mask>
<g mask="url(#mask62_75_3)">
<path d="M23.1894 57.1069L26.0843 64.5035L25.263 64.8055L22.3682 57.4089L23.1894 57.1069Z" fill="#D6DB90"/>
</g>
</g>
<mask id="mask63_75_3" style="mask-type:luminance" maskUnits="userSpaceOnUse" x="49" y="16" width="10" height="20">
<path d="M49.6353 16.3301H58.4144V35.8854H49.6353V16.3301Z" fill="white"/>
</mask>
<g mask="url(#mask63_75_3)">
<mask id="mask64_75_3" style="mask-type:luminance" maskUnits="userSpaceOnUse" x="43" y="16" width="32" height="30">
<path d="M54.0269 16.3911L74.2965 30.4451L63.4229 45.1813L43.1533 31.1276L54.0269 16.3911Z" fill="white"/>
</mask>
<g mask="url(#mask64_75_3)">
<mask id="mask65_75_3" style="mask-type:luminance" maskUnits="userSpaceOnUse" x="43" y="16" width="32" height="30">
<path d="M54.0269 16.3911L74.2965 30.4451L63.4229 45.1813L43.1533 31.1276L54.0269 16.3911Z" fill="white"/>
</mask>
<g mask="url(#mask65_75_3)">
<mask id="mask66_75_3" style="mask-type:luminance" maskUnits="userSpaceOnUse" x="43" y="16" width="32" height="30">
<path d="M54.0269 16.3911L74.2965 30.4451L63.4229 45.1813L43.1533 31.1276L54.0269 16.3911Z" fill="white"/>
</mask>
<g mask="url(#mask66_75_3)">
<path d="M50.3829 35.8303C55.6083 29.0905 54.2019 24.7416 54.2019 24.7416C55.3919 27.9425 53.9947 32.1474 52.0374 35.2973C65.0623 26.0745 54.0293 16.3959 54.0246 16.3931C54.0333 17.8703 51.67 20.7794 50.7901 22.2824C49.6963 24.1507 49.4464 26.4179 50.0199 28.4458C50.376 29.7058 51.62 32.808 50.3829 35.8303Z" fill="#36A03D"/>
</g>
</g>
</g>
</g>
<mask id="mask67_75_3" style="mask-type:luminance" maskUnits="userSpaceOnUse" x="52" y="32" width="14" height="8">
<path d="M52.2505 32.5356H65.7927V39.5068H52.2505V32.5356Z" fill="white"/>
</mask>
<g mask="url(#mask67_75_3)">
<mask id="mask68_75_3" style="mask-type:luminance" maskUnits="userSpaceOnUse" x="43" y="16" width="32" height="30">
<path d="M54.0271 16.3911L74.2967 30.4451L63.4231 45.1813L43.1536 31.1276L54.0271 16.3911Z" fill="white"/>
</mask>
<g mask="url(#mask68_75_3)">
<mask id="mask69_75_3" style="mask-type:luminance" maskUnits="userSpaceOnUse" x="43" y="16" width="32" height="30">
<path d="M54.0271 16.3911L74.2967 30.4451L63.4231 45.1813L43.1536 31.1276L54.0271 16.3911Z" fill="white"/>
</mask>
<g mask="url(#mask69_75_3)">
<mask id="mask70_75_3" style="mask-type:luminance" maskUnits="userSpaceOnUse" x="43" y="16" width="32" height="30">
<path d="M54.0271 16.3911L74.2967 30.4451L63.4231 45.1813L43.1536 31.1276L54.0271 16.3911Z" fill="white"/>
</mask>
<g mask="url(#mask70_75_3)">
<path d="M52.3354 36.9332C58.8224 37.7183 62.0292 35.0044 62.0292 35.0044C59.699 37.7006 56.3066 38.3276 53.4558 38.2672C65.1718 42.8105 65.7741 33.279 65.7741 33.279C64.607 33.7521 60.1317 32.6548 58.7246 32.6201C54.3241 32.5112 52.8115 35.4779 52.3354 36.9332Z" fill="#7ECB2A"/>
</g>
</g>
</g>
</g>
</g>
<path d="M113.607 53.0933C112.767 53.0933 112.035 52.8893 111.411 52.4813C110.811 52.0493 110.283 51.4973 109.827 50.8253C109.395 50.1533 109.011 49.4213 108.675 48.6293C108.363 47.8133 108.063 47.0333 107.775 46.2893C107.343 45.0893 106.947 44.0453 106.587 43.1573C106.227 42.2453 105.831 41.4773 105.399 40.8533C104.943 42.6773 104.571 44.4293 104.283 46.1093C104.019 47.7893 103.851 49.6613 103.779 51.7253C103.347 52.1333 102.855 52.4453 102.303 52.6613C101.775 52.8773 101.235 52.9853 100.683 52.9853C99.8425 52.9853 99.0985 52.6973 98.4505 52.1213C97.8025 51.5213 97.4785 50.5253 97.4785 49.1333C97.4785 48.1733 97.6225 47.0933 97.9105 45.8933C98.1985 44.6933 98.5465 43.4573 98.9545 42.1853C99.3865 40.9133 99.8185 39.6773 100.251 38.4773C100.683 37.2773 101.043 36.1973 101.331 35.2373C101.619 34.2533 101.763 33.4733 101.763 32.8973C101.763 32.2973 101.559 31.9973 101.151 31.9973C100.695 31.9973 100.143 32.3453 99.4945 33.0413C98.8465 33.7133 98.1865 34.6613 97.5145 35.8853L97.2985 35.8133C97.2985 34.3733 97.6105 33.0893 98.2345 31.9613C98.8585 30.8333 99.6985 29.8853 100.755 29.1173C101.835 28.3253 103.071 27.7253 104.463 27.3173C105.879 26.9093 107.355 26.7053 108.891 26.7053C110.931 26.7053 112.587 27.0293 113.859 27.6773C115.131 28.3013 116.067 29.1173 116.667 30.1253C117.291 31.1093 117.603 32.1653 117.603 33.2933C117.603 34.4453 117.303 35.5733 116.703 36.6773C116.127 37.7813 115.299 38.7053 114.219 39.4493C113.163 40.1693 111.903 40.5893 110.439 40.7093C110.943 41.0933 111.375 41.5853 111.735 42.1853C112.095 42.7613 112.467 43.4213 112.851 44.1653C113.187 44.8373 113.583 45.4853 114.039 46.1093C114.495 46.7093 115.119 47.0093 115.911 47.0093C116.319 47.0093 116.655 46.9133 116.919 46.7213C117.183 46.5053 117.411 46.1573 117.603 45.6773L117.819 45.7853C117.939 46.1453 118.011 46.4933 118.035 46.8293C118.083 47.1653 118.107 47.4773 118.107 47.7653C118.107 49.2773 117.687 50.5493 116.847 51.5813C116.007 52.5893 114.927 53.0933 113.607 53.0933ZM107.199 37.5413C108.063 37.5413 108.807 37.3493 109.431 36.9653C110.079 36.5573 110.571 36.0653 110.907 35.4893C111.267 34.8893 111.447 34.2893 111.447 33.6893C111.447 32.9453 111.159 32.2973 110.583 31.7453C110.031 31.1693 109.119 30.8813 107.847 30.8813C107.655 30.8813 107.451 30.8933 107.235 30.9173C107.043 30.9173 106.851 30.9293 106.659 30.9533C106.683 31.1213 106.695 31.2893 106.695 31.4573C106.695 31.6013 106.695 31.6733 106.695 31.6733C106.695 32.7773 106.647 33.8453 106.551 34.8773C106.479 35.9093 106.371 36.7733 106.227 37.4693C106.395 37.4933 106.551 37.5173 106.695 37.5413C106.863 37.5413 107.031 37.5413 107.199 37.5413ZM126.942 53.0933C125.19 53.0933 123.738 52.7453 122.586 52.0493C121.434 51.3293 120.57 50.3933 119.994 49.2413C119.418 48.0653 119.13 46.8053 119.13 45.4613C119.13 44.1893 119.37 42.9173 119.85 41.6453C120.354 40.3493 121.074 39.1733 122.01 38.1173C122.97 37.0613 124.122 36.2093 125.466 35.5613C126.834 34.9133 128.37 34.5893 130.074 34.5893C132.186 34.5893 133.722 35.0693 134.682 36.0293C135.666 36.9653 136.158 38.1053 136.158 39.4493C136.158 40.6013 135.846 41.6693 135.222 42.6533C134.622 43.6133 133.818 44.3933 132.81 44.9933C131.802 45.5693 130.698 45.8573 129.498 45.8573C128.874 45.8573 128.238 45.7613 127.59 45.5693C126.942 45.3773 126.306 45.0773 125.682 44.6693C125.802 46.1573 126.234 47.2373 126.978 47.9093C127.722 48.5813 128.61 48.9173 129.642 48.9173C130.362 48.9173 131.082 48.7853 131.802 48.5213C132.522 48.2333 133.182 47.8733 133.782 47.4413C134.406 46.9853 134.886 46.5053 135.222 46.0013L135.474 46.1813C135.474 47.4293 135.21 48.4973 134.682 49.3853C134.178 50.2493 133.506 50.9573 132.666 51.5093C131.826 52.0613 130.902 52.4693 129.894 52.7333C128.91 52.9733 127.926 53.0933 126.942 53.0933ZM127.77 43.3733C128.538 43.3733 129.162 43.1573 129.642 42.7253C130.122 42.2693 130.482 41.7413 130.722 41.1413C130.962 40.5413 131.082 40.0133 131.082 39.5573C131.082 39.0053 130.926 38.5493 130.614 38.1893C130.302 37.8053 129.87 37.6133 129.318 37.6133C128.886 37.6133 128.406 37.7693 127.878 38.0813C127.374 38.3933 126.918 38.9333 126.51 39.7013C126.102 40.4453 125.838 41.4893 125.718 42.8333C126.486 43.1933 127.17 43.3733 127.77 43.3733ZM144.485 53.0933C142.901 53.0933 141.557 52.7333 140.453 52.0133C139.373 51.2933 138.557 50.3573 138.005 49.2053C137.453 48.0293 137.177 46.7693 137.177 45.4253C137.177 44.1533 137.417 42.8813 137.897 41.6093C138.401 40.3373 139.133 39.1733 140.093 38.1173C141.053 37.0373 142.217 36.1853 143.585 35.5613C144.977 34.9133 146.573 34.5893 148.373 34.5893C150.149 34.5893 151.469 34.9493 152.333 35.6693C153.197 36.3653 153.629 37.1333 153.629 37.9733C153.629 38.8613 153.185 39.6773 152.297 40.4213C151.409 41.1653 150.113 41.5373 148.409 41.5373C148.505 41.1773 148.577 40.8173 148.625 40.4573C148.697 40.0733 148.733 39.7133 148.733 39.3773C148.733 38.8733 148.625 38.4533 148.409 38.1173C148.193 37.7573 147.809 37.5773 147.257 37.5773C146.753 37.5773 146.213 37.8053 145.637 38.2613C145.085 38.7173 144.605 39.3893 144.197 40.2773C143.813 41.1653 143.621 42.2573 143.621 43.5533C143.621 44.8253 143.825 45.8573 144.233 46.6493C144.665 47.4413 145.217 48.0173 145.889 48.3773C146.561 48.7133 147.269 48.8813 148.013 48.8813C148.997 48.8813 149.945 48.6293 150.857 48.1253C151.769 47.5973 152.429 46.8773 152.837 45.9653L153.197 46.1093C153.197 47.3573 152.909 48.4253 152.333 49.3133C151.781 50.1773 151.061 50.8973 150.173 51.4733C149.285 52.0253 148.337 52.4333 147.329 52.6973C146.321 52.9613 145.373 53.0933 144.485 53.0933ZM161.198 33.5813C160.238 33.5813 159.446 33.2933 158.822 32.7173C158.222 32.1173 157.922 31.3733 157.922 30.4853C157.922 29.5253 158.282 28.6973 159.002 28.0013C159.722 27.3053 160.598 26.9573 161.63 26.9573C162.59 26.9573 163.37 27.2573 163.97 27.8573C164.594 28.4573 164.906 29.2013 164.906 30.0893C164.906 31.0493 164.546 31.8773 163.826 32.5733C163.106 33.2453 162.23 33.5813 161.198 33.5813ZM158.678 52.9853C157.742 52.9853 156.902 52.6613 156.158 52.0133C155.414 51.3413 155.042 50.2733 155.042 48.8093C155.042 47.9693 155.15 47.1893 155.366 46.4693C155.606 45.7253 155.87 45.0053 156.158 44.3093C156.47 43.6133 156.734 42.9413 156.95 42.2933C157.19 41.6213 157.31 40.9613 157.31 40.3133C157.31 39.7373 157.214 39.3293 157.022 39.0893C156.83 38.8253 156.602 38.6933 156.338 38.6933C155.93 38.6933 155.534 38.9573 155.15 39.4853L154.898 39.3413C154.994 38.3813 155.294 37.5653 155.798 36.8933C156.326 36.1973 156.962 35.6573 157.706 35.2733C158.474 34.8893 159.23 34.6973 159.974 34.6973C160.886 34.6973 161.678 34.9973 162.35 35.5973C163.022 36.1733 163.358 37.1213 163.358 38.4413C163.358 39.2333 163.238 40.0733 162.998 40.9613C162.782 41.8253 162.518 42.6893 162.206 43.5533C161.918 44.4173 161.654 45.2213 161.414 45.9653C161.198 46.7093 161.09 47.3453 161.09 47.8733C161.09 48.3293 161.174 48.6533 161.342 48.8453C161.534 49.0373 161.738 49.1333 161.954 49.1333C162.17 49.1333 162.374 49.0733 162.566 48.9533C162.782 48.8093 162.938 48.6533 163.034 48.4853L163.286 48.5573C163.286 49.4453 163.046 50.2253 162.566 50.8973C162.11 51.5453 161.534 52.0613 160.838 52.4453C160.142 52.8053 159.422 52.9853 158.678 52.9853ZM168.729 60.0413C168.129 60.0413 167.553 59.8853 167.001 59.5733C166.473 59.2613 166.029 58.7573 165.669 58.0613C165.333 57.3653 165.165 56.4293 165.165 55.2533C165.165 54.1253 165.309 52.9013 165.597 51.5813C165.909 50.2613 166.257 48.9413 166.641 47.6213C167.025 46.2773 167.361 45.0053 167.649 43.8053C167.961 42.6053 168.117 41.5373 168.117 40.6013C168.117 39.9053 168.021 39.4373 167.829 39.1973C167.637 38.9333 167.409 38.8013 167.145 38.8013C166.905 38.8013 166.665 38.8733 166.425 39.0173C166.185 39.1613 165.981 39.3293 165.813 39.5213L165.561 39.3773C165.561 38.5373 165.801 37.7693 166.281 37.0733C166.785 36.3533 167.421 35.7773 168.189 35.3453C168.957 34.9133 169.749 34.6973 170.565 34.6973C171.357 34.6973 171.993 34.9013 172.473 35.3093C172.953 35.6933 173.313 36.1973 173.553 36.8213C173.817 37.4453 173.973 38.1173 174.021 38.8373C174.933 37.3973 175.929 36.3293 177.009 35.6333C178.089 34.9373 179.109 34.5893 180.069 34.5893C181.365 34.5893 182.457 35.2013 183.345 36.4253C184.257 37.6493 184.713 39.5453 184.713 42.1133C184.713 44.5133 184.329 46.5293 183.561 48.1613C182.793 49.7693 181.821 50.9813 180.645 51.7973C179.493 52.5893 178.317 52.9853 177.117 52.9853C176.085 52.9853 175.125 52.6853 174.237 52.0853C173.373 51.4613 172.701 50.5613 172.221 49.3853C172.005 50.3693 171.813 51.3413 171.645 52.3013C171.501 53.2613 171.429 54.1973 171.429 55.1093C171.429 55.6133 171.453 56.1053 171.501 56.5853C171.573 57.0653 171.681 57.5453 171.825 58.0253V58.2413C171.513 58.8413 171.069 59.2853 170.493 59.5733C169.941 59.8853 169.353 60.0413 168.729 60.0413ZM175.353 49.4933C175.929 49.4933 176.433 49.2653 176.865 48.8093C177.297 48.3533 177.669 47.7653 177.981 47.0453C178.293 46.3013 178.521 45.5093 178.665 44.6693C178.833 43.8293 178.917 43.0133 178.917 42.2213C178.917 41.2133 178.785 40.3613 178.521 39.6653C178.257 38.9453 177.849 38.5853 177.297 38.5853C176.601 38.5853 175.821 39.2933 174.957 40.7093C174.093 42.1013 173.421 44.2253 172.941 47.0813C173.157 47.8253 173.481 48.4133 173.913 48.8453C174.345 49.2773 174.825 49.4933 175.353 49.4933Z" fill="#789F52"/>
<path d="M192.587 53.0933C190.979 53.0933 189.647 52.8053 188.591 52.2293C187.535 51.6293 186.755 50.8613 186.251 49.9253C185.747 48.9653 185.495 47.9333 185.495 46.8293C185.495 45.8453 185.687 44.8733 186.071 43.9133C186.455 42.9533 187.019 42.0773 187.763 41.2853C188.531 40.4933 189.455 39.8693 190.535 39.4133C189.551 38.7893 188.807 38.0453 188.303 37.1813C187.823 36.2933 187.583 35.3693 187.583 34.4093C187.583 33.1613 187.991 31.9493 188.807 30.7733C189.623 29.5973 190.811 28.6253 192.371 27.8573C193.931 27.0893 195.803 26.7053 197.987 26.7053C199.499 26.7053 200.699 26.8973 201.587 27.2813C202.499 27.6413 203.159 28.1213 203.567 28.7213C203.975 29.2973 204.179 29.9213 204.179 30.5933C204.179 31.3613 203.939 32.1293 203.459 32.8973C202.979 33.6413 202.283 34.2533 201.371 34.7333C200.483 35.2133 199.391 35.4533 198.095 35.4533C198.479 34.3253 198.671 33.3893 198.671 32.6453C198.671 31.9013 198.515 31.3613 198.203 31.0253C197.891 30.6893 197.507 30.5213 197.051 30.5213C196.571 30.5213 196.055 30.7013 195.503 31.0613C194.975 31.4213 194.531 31.9253 194.171 32.5733C193.811 33.2213 193.631 33.9773 193.631 34.8413C193.631 35.2973 193.703 35.8133 193.847 36.3893C193.991 36.9413 194.219 37.4933 194.531 38.0453C195.059 37.7093 195.539 37.4693 195.971 37.3253C196.427 37.1573 196.835 37.0733 197.195 37.0733C197.939 37.0733 198.479 37.3373 198.815 37.8653C199.151 38.3693 199.319 38.9453 199.319 39.5933C199.319 40.3613 199.079 41.0933 198.599 41.7893C198.143 42.4853 197.459 42.8333 196.547 42.8333C195.707 42.8333 194.723 42.4373 193.595 41.6453C192.275 42.5813 191.615 43.6853 191.615 44.9573C191.615 45.9413 191.915 46.6853 192.515 47.1893C193.139 47.6933 193.931 47.9453 194.891 47.9453C196.115 47.9453 197.483 47.5253 198.995 46.6853C200.507 45.8213 201.851 44.5373 203.027 42.8333L203.315 43.0133C203.267 44.6933 202.919 46.1693 202.271 47.4413C201.647 48.6893 200.819 49.7333 199.787 50.5733C198.779 51.4133 197.651 52.0493 196.403 52.4813C195.155 52.8893 193.883 53.0933 192.587 53.0933ZM217.616 53.0213C216.776 53.0213 216.044 52.7453 215.42 52.1933C214.796 51.6413 214.484 50.7413 214.484 49.4933C214.484 49.3733 214.484 49.2533 214.484 49.1333C214.484 49.0133 214.496 48.8933 214.52 48.7733C213.8 50.2133 212.984 51.2813 212.072 51.9773C211.184 52.6493 210.284 52.9853 209.372 52.9853C208.532 52.9853 207.74 52.6973 206.996 52.1213C206.252 51.5213 205.652 50.6453 205.196 49.4933C204.74 48.3413 204.512 46.9493 204.512 45.3173C204.512 43.6373 204.74 42.1373 205.196 40.8173C205.676 39.4973 206.3 38.3813 207.068 37.4693C207.836 36.5573 208.676 35.8733 209.588 35.4173C210.5 34.9373 211.388 34.6973 212.252 34.6973C213.212 34.6973 214.076 34.9973 214.844 35.5973C215.612 36.1733 216.14 37.0973 216.428 38.3693C216.5 37.9613 216.548 37.5893 216.572 37.2533C216.62 36.9173 216.644 36.6893 216.644 36.5693C216.668 35.9213 216.992 35.4413 217.616 35.1293C218.264 34.8173 218.972 34.6613 219.74 34.6613C220.412 34.6613 221.048 34.7933 221.648 35.0573C222.248 35.3213 222.656 35.7653 222.872 36.3893L222.944 36.6053C222.656 37.2533 222.368 38.0333 222.08 38.9453C221.792 39.8573 221.528 40.8173 221.288 41.8253C221.048 42.8093 220.856 43.7813 220.712 44.7413C220.568 45.6773 220.496 46.5053 220.496 47.2253C220.496 48.0173 220.58 48.5693 220.748 48.8813C220.916 49.1693 221.12 49.3133 221.36 49.3133C221.768 49.3133 222.14 49.0253 222.476 48.4493L222.764 48.5933C222.764 49.4093 222.5 50.1533 221.972 50.8253C221.444 51.4973 220.784 52.0373 219.992 52.4453C219.2 52.8293 218.408 53.0213 217.616 53.0213ZM211.748 48.4493C212.372 48.4493 213.056 47.8973 213.8 46.7933C214.568 45.6653 215.228 44.0573 215.78 41.9693C215.828 41.7533 215.876 41.5493 215.924 41.3573C215.972 41.1413 216.008 40.9373 216.032 40.7453C215.648 39.8573 215.24 39.2333 214.808 38.8733C214.4 38.4893 213.992 38.2973 213.584 38.2973C212.984 38.2973 212.42 38.6213 211.892 39.2693C211.388 39.8933 210.968 40.6853 210.632 41.6453C210.32 42.6053 210.164 43.5653 210.164 44.5253C210.164 45.8453 210.308 46.8293 210.596 47.4773C210.908 48.1253 211.292 48.4493 211.748 48.4493ZM230.162 53.1653C228.674 53.1653 227.438 52.9613 226.454 52.5533C225.47 52.1453 224.738 51.6293 224.258 51.0053C223.778 50.3573 223.538 49.7093 223.538 49.0613C223.538 48.1493 223.946 47.3453 224.762 46.6493C225.578 45.9293 226.682 45.5693 228.074 45.5693C228.074 46.7933 228.23 47.7773 228.542 48.5213C228.854 49.2413 229.25 49.7573 229.73 50.0693C230.234 50.3813 230.714 50.5373 231.17 50.5373C231.722 50.5373 232.178 50.3813 232.538 50.0693C232.922 49.7333 233.114 49.3253 233.114 48.8453C233.114 48.1733 232.766 47.5853 232.07 47.0813C231.374 46.5773 230.474 46.0133 229.37 45.3893C228.818 45.0533 228.218 44.6693 227.57 44.2373C226.922 43.7813 226.37 43.2413 225.914 42.6173C225.458 41.9693 225.23 41.2013 225.23 40.3133C225.23 39.3773 225.494 38.5493 226.022 37.8293C226.574 37.1093 227.294 36.5093 228.182 36.0293C229.07 35.5253 230.03 35.1533 231.062 34.9133C232.094 34.6493 233.102 34.5173 234.086 34.5173C235.934 34.5173 237.326 34.8893 238.262 35.6333C239.198 36.3773 239.666 37.1693 239.666 38.0093C239.666 38.7293 239.306 39.3773 238.586 39.9533C237.866 40.5293 236.762 40.8173 235.274 40.8173C235.298 39.5933 235.046 38.7053 234.518 38.1533C233.99 37.5773 233.426 37.2893 232.826 37.2893C232.394 37.2893 232.034 37.4213 231.746 37.6853C231.458 37.9493 231.314 38.3333 231.314 38.8373C231.314 39.4133 231.494 39.9173 231.854 40.3493C232.238 40.7573 232.706 41.1293 233.258 41.4653C233.834 41.7773 234.422 42.0773 235.022 42.3653C235.838 42.7493 236.606 43.1573 237.326 43.5893C238.046 44.0213 238.634 44.5133 239.09 45.0653C239.546 45.6173 239.774 46.2893 239.774 47.0813C239.774 48.1613 239.33 49.1693 238.442 50.1053C237.578 51.0173 236.414 51.7613 234.95 52.3373C233.486 52.8893 231.89 53.1653 230.162 53.1653ZM248.599 60.0413C247.399 60.0413 246.427 59.6693 245.683 58.9253C244.963 58.2053 244.603 57.2213 244.603 55.9733C244.603 55.3253 244.711 54.6053 244.927 53.8133C245.167 53.0453 245.551 52.2293 246.079 51.3653C244.903 51.2933 243.931 50.8973 243.163 50.1773C242.419 49.4573 242.047 48.3653 242.047 46.9013C242.047 46.0373 242.155 45.1133 242.371 44.1293C242.611 43.1213 242.839 42.1853 243.055 41.3213C243.271 40.4333 243.379 39.7493 243.379 39.2693C243.379 38.9093 243.307 38.6573 243.163 38.5133C243.019 38.3453 242.851 38.2613 242.659 38.2613C242.467 38.2613 242.251 38.3453 242.011 38.5133C241.795 38.6573 241.627 38.8853 241.507 39.1973L240.895 38.5493C241.039 37.8053 241.351 37.1453 241.831 36.5693C242.311 35.9933 242.899 35.5373 243.595 35.2013C244.291 34.8653 245.011 34.6973 245.755 34.6973C246.595 34.6973 247.327 34.9733 247.951 35.5253C248.575 36.0533 248.887 37.0253 248.887 38.4413C248.887 39.3293 248.779 40.2893 248.563 41.3213C248.347 42.3293 248.131 43.2893 247.915 44.2013C247.699 45.0893 247.591 45.7973 247.591 46.3253C247.591 46.8053 247.687 47.1653 247.879 47.4053C248.095 47.6213 248.335 47.7293 248.599 47.7293C248.935 47.7293 249.319 47.5493 249.751 47.1893C250.183 46.8053 250.591 46.1813 250.975 45.3173C251.359 44.4533 251.611 43.2893 251.731 41.8253C251.779 41.3693 251.815 40.7933 251.839 40.0973C251.863 39.3773 251.887 38.7173 251.911 38.1173C251.935 37.4933 251.947 37.1093 251.947 36.9653C251.947 36.1013 252.259 35.5013 252.883 35.1653C253.531 34.8053 254.239 34.6253 255.007 34.6253C255.679 34.6253 256.315 34.7573 256.915 35.0213C257.515 35.2853 257.923 35.7293 258.139 36.3533L258.211 36.5693C257.995 36.7613 257.803 37.4093 257.635 38.5133C257.491 39.6173 257.311 41.0933 257.095 42.9413C256.951 44.1413 256.771 45.4973 256.555 47.0093C256.339 48.5213 256.039 50.0453 255.655 51.5813C255.295 53.0933 254.803 54.4853 254.179 55.7573C253.579 57.0533 252.823 58.0853 251.911 58.8533C250.999 59.6453 249.895 60.0413 248.599 60.0413ZM247.735 55.9013C248.479 55.9013 249.139 55.2173 249.715 53.8493C250.315 52.5053 250.783 50.5853 251.119 48.0893C249.583 50.0573 248.527 51.6053 247.951 52.7333C247.375 53.8613 247.087 54.6773 247.087 55.1813C247.087 55.6613 247.303 55.9013 247.735 55.9013Z" fill="#789F52"/>
<path d="M192.587 53.0933C190.979 53.0933 189.647 52.8053 188.591 52.2293C187.535 51.6293 186.755 50.8613 186.251 49.9253C185.747 48.9653 185.495 47.9333 185.495 46.8293C185.495 45.8453 185.687 44.8733 186.071 43.9133C186.455 42.9533 187.019 42.0773 187.763 41.2853C188.531 40.4933 189.455 39.8693 190.535 39.4133C189.551 38.7893 188.807 38.0453 188.303 37.1813C187.823 36.2933 187.583 35.3693 187.583 34.4093C187.583 33.1613 187.991 31.9493 188.807 30.7733C189.623 29.5973 190.811 28.6253 192.371 27.8573C193.931 27.0893 195.803 26.7053 197.987 26.7053C199.499 26.7053 200.699 26.8973 201.587 27.2813C202.499 27.6413 203.159 28.1213 203.567 28.7213C203.975 29.2973 204.179 29.9213 204.179 30.5933C204.179 31.3613 203.939 32.1293 203.459 32.8973C202.979 33.6413 202.283 34.2533 201.371 34.7333C200.483 35.2133 199.391 35.4533 198.095 35.4533C198.479 34.3253 198.671 33.3893 198.671 32.6453C198.671 31.9013 198.515 31.3613 198.203 31.0253C197.891 30.6893 197.507 30.5213 197.051 30.5213C196.571 30.5213 196.055 30.7013 195.503 31.0613C194.975 31.4213 194.531 31.9253 194.171 32.5733C193.811 33.2213 193.631 33.9773 193.631 34.8413C193.631 35.2973 193.703 35.8133 193.847 36.3893C193.991 36.9413 194.219 37.4933 194.531 38.0453C195.059 37.7093 195.539 37.4693 195.971 37.3253C196.427 37.1573 196.835 37.0733 197.195 37.0733C197.939 37.0733 198.479 37.3373 198.815 37.8653C199.151 38.3693 199.319 38.9453 199.319 39.5933C199.319 40.3613 199.079 41.0933 198.599 41.7893C198.143 42.4853 197.459 42.8333 196.547 42.8333C195.707 42.8333 194.723 42.4373 193.595 41.6453C192.275 42.5813 191.615 43.6853 191.615 44.9573C191.615 45.9413 191.915 46.6853 192.515 47.1893C193.139 47.6933 193.931 47.9453 194.891 47.9453C196.115 47.9453 197.483 47.5253 198.995 46.6853C200.507 45.8213 201.851 44.5373 203.027 42.8333L203.315 43.0133C203.267 44.6933 202.919 46.1693 202.271 47.4413C201.647 48.6893 200.819 49.7333 199.787 50.5733C198.779 51.4133 197.651 52.0493 196.403 52.4813C195.155 52.8893 193.883 53.0933 192.587 53.0933ZM217.616 53.0213C216.776 53.0213 216.044 52.7453 215.42 52.1933C214.796 51.6413 214.484 50.7413 214.484 49.4933C214.484 49.3733 214.484 49.2533 214.484 49.1333C214.484 49.0133 214.496 48.8933 214.52 48.7733C213.8 50.2133 212.984 51.2813 212.072 51.9773C211.184 52.6493 210.284 52.9853 209.372 52.9853C208.532 52.9853 207.74 52.6973 206.996 52.1213C206.252 51.5213 205.652 50.6453 205.196 49.4933C204.74 48.3413 204.512 46.9493 204.512 45.3173C204.512 43.6373 204.74 42.1373 205.196 40.8173C205.676 39.4973 206.3 38.3813 207.068 37.4693C207.836 36.5573 208.676 35.8733 209.588 35.4173C210.5 34.9373 211.388 34.6973 212.252 34.6973C213.212 34.6973 214.076 34.9973 214.844 35.5973C215.612 36.1733 216.14 37.0973 216.428 38.3693C216.5 37.9613 216.548 37.5893 216.572 37.2533C216.62 36.9173 216.644 36.6893 216.644 36.5693C216.668 35.9213 216.992 35.4413 217.616 35.1293C218.264 34.8173 218.972 34.6613 219.74 34.6613C220.412 34.6613 221.048 34.7933 221.648 35.0573C222.248 35.3213 222.656 35.7653 222.872 36.3893L222.944 36.6053C222.656 37.2533 222.368 38.0333 222.08 38.9453C221.792 39.8573 221.528 40.8173 221.288 41.8253C221.048 42.8093 220.856 43.7813 220.712 44.7413C220.568 45.6773 220.496 46.5053 220.496 47.2253C220.496 48.0173 220.58 48.5693 220.748 48.8813C220.916 49.1693 221.12 49.3133 221.36 49.3133C221.768 49.3133 222.14 49.0253 222.476 48.4493L222.764 48.5933C222.764 49.4093 222.5 50.1533 221.972 50.8253C221.444 51.4973 220.784 52.0373 219.992 52.4453C219.2 52.8293 218.408 53.0213 217.616 53.0213ZM211.748 48.4493C212.372 48.4493 213.056 47.8973 213.8 46.7933C214.568 45.6653 215.228 44.0573 215.78 41.9693C215.828 41.7533 215.876 41.5493 215.924 41.3573C215.972 41.1413 216.008 40.9373 216.032 40.7453C215.648 39.8573 215.24 39.2333 214.808 38.8733C214.4 38.4893 213.992 38.2973 213.584 38.2973C212.984 38.2973 212.42 38.6213 211.892 39.2693C211.388 39.8933 210.968 40.6853 210.632 41.6453C210.32 42.6053 210.164 43.5653 210.164 44.5253C210.164 45.8453 210.308 46.8293 210.596 47.4773C210.908 48.1253 211.292 48.4493 211.748 48.4493ZM230.162 53.1653C228.674 53.1653 227.438 52.9613 226.454 52.5533C225.47 52.1453 224.738 51.6293 224.258 51.0053C223.778 50.3573 223.538 49.7093 223.538 49.0613C223.538 48.1493 223.946 47.3453 224.762 46.6493C225.578 45.9293 226.682 45.5693 228.074 45.5693C228.074 46.7933 228.23 47.7773 228.542 48.5213C228.854 49.2413 229.25 49.7573 229.73 50.0693C230.234 50.3813 230.714 50.5373 231.17 50.5373C231.722 50.5373 232.178 50.3813 232.538 50.0693C232.922 49.7333 233.114 49.3253 233.114 48.8453C233.114 48.1733 232.766 47.5853 232.07 47.0813C231.374 46.5773 230.474 46.0133 229.37 45.3893C228.818 45.0533 228.218 44.6693 227.57 44.2373C226.922 43.7813 226.37 43.2413 225.914 42.6173C225.458 41.9693 225.23 41.2013 225.23 40.3133C225.23 39.3773 225.494 38.5493 226.022 37.8293C226.574 37.1093 227.294 36.5093 228.182 36.0293C229.07 35.5253 230.03 35.1533 231.062 34.9133C232.094 34.6493 233.102 34.5173 234.086 34.5173C235.934 34.5173 237.326 34.8893 238.262 35.6333C239.198 36.3773 239.666 37.1693 239.666 38.0093C239.666 38.7293 239.306 39.3773 238.586 39.9533C237.866 40.5293 236.762 40.8173 235.274 40.8173C235.298 39.5933 235.046 38.7053 234.518 38.1533C233.99 37.5773 233.426 37.2893 232.826 37.2893C232.394 37.2893 232.034 37.4213 231.746 37.6853C231.458 37.9493 231.314 38.3333 231.314 38.8373C231.314 39.4133 231.494 39.9173 231.854 40.3493C232.238 40.7573 232.706 41.1293 233.258 41.4653C233.834 41.7773 234.422 42.0773 235.022 42.3653C235.838 42.7493 236.606 43.1573 237.326 43.5893C238.046 44.0213 238.634 44.5133 239.09 45.0653C239.546 45.6173 239.774 46.2893 239.774 47.0813C239.774 48.1613 239.33 49.1693 238.442 50.1053C237.578 51.0173 236.414 51.7613 234.95 52.3373C233.486 52.8893 231.89 53.1653 230.162 53.1653ZM248.599 60.0413C247.399 60.0413 246.427 59.6693 245.683 58.9253C244.963 58.2053 244.603 57.2213 244.603 55.9733C244.603 55.3253 244.711 54.6053 244.927 53.8133C245.167 53.0453 245.551 52.2293 246.079 51.3653C244.903 51.2933 243.931 50.8973 243.163 50.1773C242.419 49.4573 242.047 48.3653 242.047 46.9013C242.047 46.0373 242.155 45.1133 242.371 44.1293C242.611 43.1213 242.839 42.1853 243.055 41.3213C243.271 40.4333 243.379 39.7493 243.379 39.2693C243.379 38.9093 243.307 38.6573 243.163 38.5133C243.019 38.3453 242.851 38.2613 242.659 38.2613C242.467 38.2613 242.251 38.3453 242.011 38.5133C241.795 38.6573 241.627 38.8853 241.507 39.1973L240.895 38.5493C241.039 37.8053 241.351 37.1453 241.831 36.5693C242.311 35.9933 242.899 35.5373 243.595 35.2013C244.291 34.8653 245.011 34.6973 245.755 34.6973C246.595 34.6973 247.327 34.9733 247.951 35.5253C248.575 36.0533 248.887 37.0253 248.887 38.4413C248.887 39.3293 248.779 40.2893 248.563 41.3213C248.347 42.3293 248.131 43.2893 247.915 44.2013C247.699 45.0893 247.591 45.7973 247.591 46.3253C247.591 46.8053 247.687 47.1653 247.879 47.4053C248.095 47.6213 248.335 47.7293 248.599 47.7293C248.935 47.7293 249.319 47.5493 249.751 47.1893C250.183 46.8053 250.591 46.1813 250.975 45.3173C251.359 44.4533 251.611 43.2893 251.731 41.8253C251.779 41.3693 251.815 40.7933 251.839 40.0973C251.863 39.3773 251.887 38.7173 251.911 38.1173C251.935 37.4933 251.947 37.1093 251.947 36.9653C251.947 36.1013 252.259 35.5013 252.883 35.1653C253.531 34.8053 254.239 34.6253 255.007 34.6253C255.679 34.6253 256.315 34.7573 256.915 35.0213C257.515 35.2853 257.923 35.7293 258.139 36.3533L258.211 36.5693C257.995 36.7613 257.803 37.4093 257.635 38.5133C257.491 39.6173 257.311 41.0933 257.095 42.9413C256.951 44.1413 256.771 45.4973 256.555 47.0093C256.339 48.5213 256.039 50.0453 255.655 51.5813C255.295 53.0933 254.803 54.4853 254.179 55.7573C253.579 57.0533 252.823 58.0853 251.911 58.8533C250.999 59.6453 249.895 60.0413 248.599 60.0413ZM247.735 55.9013C248.479 55.9013 249.139 55.2173 249.715 53.8493C250.315 52.5053 250.783 50.5853 251.119 48.0893C249.583 50.0573 248.527 51.6053 247.951 52.7333C247.375 53.8613 247.087 54.6773 247.087 55.1813C247.087 55.6613 247.303 55.9013 247.735 55.9013Z" fill="#F8741F"/>
<defs>
<clipPath id="clip0_75_3">
<path d="M0.789551 0H77.3144V54.8199C77.3144 65.8656 68.3601 74.8199 57.3144 74.8199H20.7896C9.74386 74.8199 0.789551 65.8656 0.789551 54.8199V0Z" fill="white"/>
</clipPath>
<clipPath id="clip1_75_3">
<path d="M6.10352 5.34424H77.3142V54.8198C77.3142 65.8655 68.3599 74.8198 57.3142 74.8198H26.1035C15.0578 74.8198 6.10352 65.8655 6.10352 54.8198V5.34424Z" fill="white"/>
</clipPath>
<clipPath id="clip2_75_3">
<path d="M11 10H77V54C77 65.0457 68.0457 74 57 74H31C19.9543 74 11 65.0457 11 54V10Z" fill="white"/>
</clipPath>
</defs>
</svg>
