<svg width="300" height="300" viewBox="0 0 630 693" fill="none" xmlns="http://www.w3.org/2000/svg">
<path d="M135.84 647.091V682H130.215L113.766 658.222H113.476V682H107.153V647.091H112.812L129.243 670.886H129.55V647.091H135.84ZM152.918 682.511C150.362 682.511 148.146 681.949 146.271 680.824C144.396 679.699 142.941 678.125 141.907 676.102C140.884 674.08 140.373 671.716 140.373 669.011C140.373 666.307 140.884 663.937 141.907 661.903C142.941 659.869 144.396 658.29 146.271 657.165C148.146 656.04 150.362 655.477 152.918 655.477C155.475 655.477 157.691 656.04 159.566 657.165C161.441 658.29 162.89 659.869 163.913 661.903C164.947 663.937 165.464 666.307 165.464 669.011C165.464 671.716 164.947 674.08 163.913 676.102C162.89 678.125 161.441 679.699 159.566 680.824C157.691 681.949 155.475 682.511 152.918 682.511ZM152.953 677.568C154.339 677.568 155.498 677.187 156.43 676.426C157.362 675.653 158.055 674.619 158.509 673.324C158.975 672.028 159.208 670.585 159.208 668.994C159.208 667.392 158.975 665.943 158.509 664.648C158.055 663.341 157.362 662.301 156.43 661.528C155.498 660.756 154.339 660.369 152.953 660.369C151.532 660.369 150.35 660.756 149.407 661.528C148.475 662.301 147.776 663.341 147.31 664.648C146.856 665.943 146.629 667.392 146.629 668.994C146.629 670.585 146.856 672.028 147.31 673.324C147.776 674.619 148.475 675.653 149.407 676.426C150.35 677.187 151.532 677.568 152.953 677.568ZM182.815 655.818V660.591H167.764V655.818H182.815ZM171.48 649.545H177.65V674.125C177.65 674.955 177.775 675.591 178.025 676.034C178.287 676.466 178.627 676.761 179.048 676.92C179.468 677.08 179.934 677.159 180.446 677.159C180.832 677.159 181.184 677.131 181.502 677.074C181.832 677.017 182.082 676.966 182.252 676.92L183.292 681.744C182.963 681.858 182.491 681.983 181.877 682.119C181.275 682.256 180.537 682.335 179.662 682.358C178.116 682.403 176.724 682.17 175.485 681.659C174.247 681.136 173.264 680.33 172.537 679.239C171.821 678.148 171.468 676.784 171.48 675.148V649.545ZM193.748 666.659V682H187.578V647.091H193.612V660.267H193.919C194.533 658.79 195.481 657.625 196.765 656.773C198.061 655.909 199.709 655.477 201.709 655.477C203.527 655.477 205.112 655.858 206.464 656.619C207.817 657.381 208.862 658.494 209.601 659.96C210.351 661.426 210.726 663.216 210.726 665.33V682H204.555V666.284C204.555 664.523 204.101 663.153 203.192 662.176C202.294 661.187 201.033 660.693 199.408 660.693C198.317 660.693 197.339 660.932 196.476 661.409C195.623 661.875 194.953 662.551 194.464 663.438C193.987 664.324 193.748 665.398 193.748 666.659ZM216.055 682V655.818H222.226V682H216.055ZM219.158 652.102C218.18 652.102 217.34 651.778 216.635 651.131C215.93 650.472 215.578 649.682 215.578 648.761C215.578 647.83 215.93 647.04 216.635 646.392C217.34 645.733 218.18 645.403 219.158 645.403C220.146 645.403 220.987 645.733 221.68 646.392C222.385 647.04 222.737 647.83 222.737 648.761C222.737 649.682 222.385 650.472 221.68 651.131C220.987 651.778 220.146 652.102 219.158 652.102ZM233.782 666.659V682H227.611V655.818H233.509V660.267H233.816C234.418 658.801 235.378 657.636 236.696 656.773C238.026 655.909 239.668 655.477 241.622 655.477C243.429 655.477 245.003 655.864 246.344 656.636C247.696 657.409 248.742 658.528 249.48 659.994C250.23 661.46 250.6 663.239 250.588 665.33V682H244.418V666.284C244.418 664.534 243.963 663.165 243.054 662.176C242.157 661.187 240.912 660.693 239.321 660.693C238.242 660.693 237.282 660.932 236.441 661.409C235.611 661.875 234.958 662.551 234.48 663.438C234.014 664.324 233.782 665.398 233.782 666.659ZM267.287 692.364C265.072 692.364 263.168 692.063 261.577 691.46C259.986 690.869 258.708 690.074 257.742 689.074C256.776 688.074 256.106 686.966 255.731 685.75L261.287 684.403C261.537 684.915 261.901 685.42 262.378 685.92C262.856 686.432 263.498 686.852 264.305 687.182C265.123 687.523 266.151 687.693 267.39 687.693C269.14 687.693 270.589 687.267 271.736 686.415C272.884 685.574 273.458 684.188 273.458 682.256V677.295H273.151C272.833 677.932 272.367 678.585 271.753 679.256C271.151 679.926 270.35 680.489 269.35 680.943C268.361 681.398 267.117 681.625 265.617 681.625C263.606 681.625 261.782 681.153 260.145 680.21C258.52 679.256 257.225 677.835 256.259 675.949C255.305 674.051 254.827 671.676 254.827 668.824C254.827 665.949 255.305 663.523 256.259 661.545C257.225 659.557 258.526 658.051 260.162 657.028C261.799 655.994 263.623 655.477 265.634 655.477C267.168 655.477 268.43 655.739 269.418 656.261C270.418 656.773 271.214 657.392 271.805 658.119C272.395 658.835 272.844 659.511 273.151 660.148H273.492V655.818H279.577V682.426C279.577 684.665 279.043 686.517 277.975 687.983C276.907 689.449 275.447 690.545 273.594 691.273C271.742 692 269.64 692.364 267.287 692.364ZM267.339 676.784C268.645 676.784 269.759 676.466 270.68 675.83C271.6 675.193 272.299 674.278 272.776 673.085C273.253 671.892 273.492 670.46 273.492 668.79C273.492 667.142 273.253 665.699 272.776 664.46C272.31 663.222 271.617 662.261 270.697 661.58C269.787 660.886 268.668 660.54 267.339 660.54C265.964 660.54 264.816 660.898 263.895 661.614C262.975 662.33 262.282 663.312 261.816 664.562C261.35 665.801 261.117 667.21 261.117 668.79C261.117 670.392 261.35 671.795 261.816 673C262.293 674.193 262.992 675.125 263.912 675.795C264.844 676.455 265.986 676.784 267.339 676.784ZM308.961 655.818V660.591H293.91V655.818H308.961ZM297.626 649.545H303.796V674.125C303.796 674.955 303.921 675.591 304.171 676.034C304.433 676.466 304.774 676.761 305.194 676.92C305.615 677.08 306.081 677.159 306.592 677.159C306.978 677.159 307.331 677.131 307.649 677.074C307.978 677.017 308.228 676.966 308.399 676.92L309.438 681.744C309.109 681.858 308.637 681.983 308.024 682.119C307.421 682.256 306.683 682.335 305.808 682.358C304.262 682.403 302.87 682.17 301.632 681.659C300.393 681.136 299.41 680.33 298.683 679.239C297.967 678.148 297.615 676.784 297.626 675.148V649.545ZM324.301 682.511C321.744 682.511 319.528 681.949 317.653 680.824C315.778 679.699 314.324 678.125 313.29 676.102C312.267 674.08 311.755 671.716 311.755 669.011C311.755 666.307 312.267 663.937 313.29 661.903C314.324 659.869 315.778 658.29 317.653 657.165C319.528 656.04 321.744 655.477 324.301 655.477C326.858 655.477 329.074 656.04 330.949 657.165C332.824 658.29 334.273 659.869 335.295 661.903C336.329 663.937 336.846 666.307 336.846 669.011C336.846 671.716 336.329 674.08 335.295 676.102C334.273 678.125 332.824 679.699 330.949 680.824C329.074 681.949 326.858 682.511 324.301 682.511ZM324.335 677.568C325.721 677.568 326.88 677.187 327.812 676.426C328.744 675.653 329.437 674.619 329.892 673.324C330.358 672.028 330.591 670.585 330.591 668.994C330.591 667.392 330.358 665.943 329.892 664.648C329.437 663.341 328.744 662.301 327.812 661.528C326.88 660.756 325.721 660.369 324.335 660.369C322.915 660.369 321.733 660.756 320.79 661.528C319.858 662.301 319.159 663.341 318.693 664.648C318.238 665.943 318.011 667.392 318.011 668.994C318.011 670.585 318.238 672.028 318.693 673.324C319.159 674.619 319.858 675.653 320.79 676.426C321.733 677.187 322.915 677.568 324.335 677.568ZM352.343 682V647.091H365.433C368.115 647.091 370.365 647.591 372.183 648.591C374.013 649.591 375.394 650.966 376.326 652.716C377.269 654.455 377.74 656.432 377.74 658.648C377.74 660.886 377.269 662.875 376.326 664.614C375.382 666.352 373.99 667.722 372.149 668.722C370.308 669.71 368.041 670.205 365.348 670.205H356.672V665.006H364.496C366.064 665.006 367.348 664.733 368.348 664.188C369.348 663.642 370.087 662.892 370.564 661.938C371.053 660.983 371.297 659.886 371.297 658.648C371.297 657.409 371.053 656.318 370.564 655.375C370.087 654.432 369.343 653.699 368.331 653.176C367.331 652.642 366.041 652.375 364.462 652.375H358.666V682H352.343ZM382 682V655.818H387.983V660.182H388.256C388.733 658.67 389.552 657.506 390.711 656.688C391.881 655.858 393.216 655.443 394.716 655.443C395.057 655.443 395.438 655.46 395.858 655.494C396.29 655.517 396.648 655.557 396.932 655.614V661.29C396.671 661.199 396.256 661.119 395.688 661.051C395.131 660.972 394.591 660.932 394.069 660.932C392.944 660.932 391.932 661.176 391.035 661.665C390.148 662.142 389.449 662.807 388.938 663.659C388.427 664.511 388.171 665.494 388.171 666.608V682H382ZM410.584 682.511C407.959 682.511 405.692 681.966 403.783 680.875C401.886 679.773 400.425 678.216 399.403 676.205C398.38 674.182 397.869 671.801 397.869 669.062C397.869 666.369 398.38 664.006 399.403 661.972C400.437 659.926 401.88 658.335 403.732 657.199C405.584 656.051 407.761 655.477 410.261 655.477C411.874 655.477 413.397 655.739 414.829 656.261C416.272 656.773 417.545 657.568 418.647 658.648C419.761 659.727 420.636 661.102 421.272 662.773C421.908 664.432 422.227 666.409 422.227 668.705V670.597H400.766V666.438H416.312C416.3 665.256 416.045 664.205 415.545 663.284C415.045 662.352 414.346 661.619 413.448 661.085C412.562 660.551 411.528 660.284 410.346 660.284C409.084 660.284 407.977 660.591 407.022 661.205C406.067 661.807 405.323 662.602 404.789 663.591C404.266 664.568 403.999 665.642 403.988 666.812V670.443C403.988 671.966 404.266 673.273 404.823 674.364C405.38 675.443 406.158 676.273 407.158 676.852C408.158 677.42 409.329 677.705 410.67 677.705C411.567 677.705 412.38 677.58 413.107 677.33C413.834 677.068 414.465 676.688 414.999 676.188C415.533 675.688 415.937 675.068 416.209 674.33L421.971 674.977C421.607 676.5 420.914 677.83 419.891 678.966C418.88 680.091 417.584 680.966 416.005 681.591C414.425 682.205 412.619 682.511 410.584 682.511ZM426.487 691.818V655.818H432.555V660.148H432.913C433.231 659.511 433.68 658.835 434.259 658.119C434.839 657.392 435.623 656.773 436.612 656.261C437.6 655.739 438.862 655.477 440.396 655.477C442.419 655.477 444.242 655.994 445.867 657.028C447.504 658.051 448.799 659.568 449.754 661.58C450.72 663.58 451.203 666.034 451.203 668.943C451.203 671.818 450.731 674.261 449.788 676.273C448.845 678.284 447.561 679.818 445.936 680.875C444.311 681.932 442.47 682.46 440.413 682.46C438.913 682.46 437.669 682.21 436.68 681.71C435.691 681.21 434.896 680.608 434.294 679.903C433.703 679.187 433.242 678.511 432.913 677.875H432.657V691.818H426.487ZM432.538 668.909C432.538 670.602 432.776 672.085 433.254 673.358C433.742 674.631 434.441 675.625 435.35 676.341C436.271 677.045 437.384 677.398 438.691 677.398C440.055 677.398 441.197 677.034 442.117 676.307C443.038 675.568 443.731 674.562 444.197 673.29C444.674 672.006 444.913 670.545 444.913 668.909C444.913 667.284 444.68 665.841 444.214 664.58C443.748 663.318 443.055 662.33 442.134 661.614C441.214 660.898 440.066 660.54 438.691 660.54C437.373 660.54 436.254 660.886 435.333 661.58C434.413 662.273 433.714 663.244 433.237 664.494C432.771 665.744 432.538 667.216 432.538 668.909ZM463.061 682.528C461.402 682.528 459.907 682.233 458.578 681.642C457.26 681.04 456.214 680.153 455.441 678.983C454.68 677.812 454.299 676.369 454.299 674.653C454.299 673.176 454.572 671.955 455.118 670.989C455.663 670.023 456.407 669.25 457.351 668.67C458.294 668.091 459.356 667.653 460.538 667.358C461.731 667.051 462.964 666.83 464.237 666.693C465.771 666.534 467.015 666.392 467.97 666.267C468.924 666.131 469.618 665.926 470.049 665.653C470.493 665.369 470.714 664.932 470.714 664.341V664.239C470.714 662.955 470.334 661.96 469.572 661.256C468.811 660.551 467.714 660.199 466.282 660.199C464.771 660.199 463.572 660.528 462.686 661.188C461.811 661.847 461.22 662.625 460.913 663.523L455.152 662.705C455.606 661.114 456.356 659.784 457.402 658.716C458.447 657.636 459.726 656.83 461.237 656.295C462.748 655.75 464.419 655.477 466.248 655.477C467.51 655.477 468.765 655.625 470.015 655.92C471.265 656.216 472.407 656.705 473.441 657.386C474.476 658.057 475.305 658.972 475.93 660.131C476.566 661.29 476.885 662.739 476.885 664.477V682H470.953V678.403H470.748C470.373 679.131 469.845 679.812 469.163 680.449C468.493 681.074 467.646 681.58 466.623 681.966C465.612 682.341 464.424 682.528 463.061 682.528ZM464.663 677.994C465.902 677.994 466.976 677.75 467.885 677.261C468.794 676.761 469.493 676.102 469.981 675.284C470.481 674.466 470.731 673.574 470.731 672.608V669.523C470.538 669.682 470.209 669.83 469.743 669.966C469.288 670.102 468.777 670.222 468.209 670.324C467.64 670.426 467.078 670.517 466.521 670.597C465.964 670.676 465.481 670.744 465.072 670.801C464.152 670.926 463.328 671.131 462.601 671.415C461.873 671.699 461.299 672.097 460.879 672.608C460.459 673.108 460.248 673.756 460.248 674.551C460.248 675.688 460.663 676.545 461.493 677.125C462.322 677.705 463.379 677.994 464.663 677.994ZM482.129 682V655.818H488.112V660.182H488.385C488.862 658.67 489.68 657.506 490.839 656.688C492.01 655.858 493.345 655.443 494.845 655.443C495.186 655.443 495.567 655.46 495.987 655.494C496.419 655.517 496.777 655.557 497.061 655.614V661.29C496.8 661.199 496.385 661.119 495.817 661.051C495.26 660.972 494.72 660.932 494.197 660.932C493.072 660.932 492.061 661.176 491.163 661.665C490.277 662.142 489.578 662.807 489.067 663.659C488.555 664.511 488.3 665.494 488.3 666.608V682H482.129ZM510.713 682.511C508.088 682.511 505.821 681.966 503.912 680.875C502.014 679.773 500.554 678.216 499.531 676.205C498.509 674.182 497.997 671.801 497.997 669.062C497.997 666.369 498.509 664.006 499.531 661.972C500.566 659.926 502.009 658.335 503.861 657.199C505.713 656.051 507.889 655.477 510.389 655.477C512.003 655.477 513.526 655.739 514.958 656.261C516.401 656.773 517.673 657.568 518.776 658.648C519.889 659.727 520.764 661.102 521.401 662.773C522.037 664.432 522.355 666.409 522.355 668.705V670.597H500.895V666.438H516.441C516.429 665.256 516.173 664.205 515.673 663.284C515.173 662.352 514.475 661.619 513.577 661.085C512.691 660.551 511.656 660.284 510.475 660.284C509.213 660.284 508.105 660.591 507.151 661.205C506.196 661.807 505.452 662.602 504.918 663.591C504.395 664.568 504.128 665.642 504.117 666.812V670.443C504.117 671.966 504.395 673.273 504.952 674.364C505.509 675.443 506.287 676.273 507.287 676.852C508.287 677.42 509.458 677.705 510.798 677.705C511.696 677.705 512.509 677.58 513.236 677.33C513.963 677.068 514.594 676.688 515.128 676.188C515.662 675.688 516.066 675.068 516.338 674.33L522.1 674.977C521.736 676.5 521.043 677.83 520.02 678.966C519.009 680.091 517.713 680.966 516.134 681.591C514.554 682.205 512.747 682.511 510.713 682.511ZM530.417 682.375C529.383 682.375 528.496 682.011 527.758 681.284C527.019 680.557 526.655 679.67 526.667 678.625C526.655 677.602 527.019 676.727 527.758 676C528.496 675.273 529.383 674.909 530.417 674.909C531.417 674.909 532.286 675.273 533.025 676C533.775 676.727 534.155 677.602 534.167 678.625C534.155 679.318 533.973 679.949 533.621 680.517C533.28 681.085 532.826 681.54 532.258 681.881C531.701 682.21 531.087 682.375 530.417 682.375ZM543.378 682.375C542.344 682.375 541.458 682.011 540.719 681.284C539.981 680.557 539.617 679.67 539.628 678.625C539.617 677.602 539.981 676.727 540.719 676C541.458 675.273 542.344 674.909 543.378 674.909C544.378 674.909 545.248 675.273 545.986 676C546.736 676.727 547.117 677.602 547.128 678.625C547.117 679.318 546.935 679.949 546.583 680.517C546.242 681.085 545.788 681.54 545.219 681.881C544.663 682.21 544.049 682.375 543.378 682.375ZM556.34 682.375C555.306 682.375 554.42 682.011 553.681 681.284C552.943 680.557 552.579 679.67 552.59 678.625C552.579 677.602 552.943 676.727 553.681 676C554.42 675.273 555.306 674.909 556.34 674.909C557.34 674.909 558.21 675.273 558.948 676C559.698 676.727 560.079 677.602 560.09 678.625C560.079 679.318 559.897 679.949 559.545 680.517C559.204 681.085 558.749 681.54 558.181 681.881C557.624 682.21 557.011 682.375 556.34 682.375Z" fill="#EEEEEE"/>
<g clip-path="url(#clip0_116_2)">
<mask id="mask0_116_2" style="mask-type:luminance" maskUnits="userSpaceOnUse" x="0" y="0" width="630" height="585">
<path d="M0.666748 0.333496H630V584.901H0.666748V0.333496Z" fill="white"/>
</mask>
<g mask="url(#mask0_116_2)">
<path d="M584.76 225.406H470.917L334.156 10.4687C325.891 -2.46875 304.505 -2.46875 296.24 10.4687L159.479 225.406H45.6302C20.8333 225.406 0.703125 245.531 0.703125 270.333L81.2604 552.255C86.7396 571.526 104.396 584.823 124.432 584.823H505.917C525.953 584.823 543.609 571.526 549.089 552.255L629.688 270.333C629.688 245.531 609.562 225.406 584.76 225.406ZM315.198 64.3854L417.677 225.406H212.719L315.198 64.3854Z" fill="#628C38"/>
</g>
<mask id="mask1_116_2" style="mask-type:luminance" maskUnits="userSpaceOnUse" x="217" y="304" width="14" height="79">
<path d="M217.552 304.338H230.786V382.104H217.552V304.338Z" fill="white"/>
</mask>
<g mask="url(#mask1_116_2)">
<mask id="mask2_116_2" style="mask-type:luminance" maskUnits="userSpaceOnUse" x="217" y="304" width="14" height="79">
<path d="M230.786 310.953V375.469C230.786 377.224 230.088 378.906 228.849 380.146C227.609 381.39 225.922 382.083 224.167 382.083C222.411 382.083 220.729 381.39 219.49 380.146C218.245 378.906 217.552 377.224 217.552 375.469V310.953C217.552 309.198 218.245 307.515 219.49 306.276C220.729 305.031 222.411 304.338 224.167 304.338C225.922 304.338 227.609 305.031 228.849 306.276C230.088 307.515 230.786 309.198 230.786 310.953Z" fill="white"/>
</mask>
<g mask="url(#mask2_116_2)">
<path d="M230.786 304.338V382.104H217.552V304.338H230.786Z" fill="#628246"/>
</g>
</g>
<mask id="mask3_116_2" style="mask-type:luminance" maskUnits="userSpaceOnUse" x="206" y="299" width="23" height="85">
<path d="M206.656 299.802H228.458V383.511H206.656V299.802Z" fill="white"/>
</mask>
<g mask="url(#mask3_116_2)">
<mask id="mask4_116_2" style="mask-type:luminance" maskUnits="userSpaceOnUse" x="206" y="299" width="23" height="85">
<path d="M217.557 299.802C223.578 299.802 228.458 304.682 228.458 310.703V372.589C228.458 378.61 223.578 383.49 217.557 383.49C211.536 383.49 206.656 378.61 206.656 372.589V310.703C206.656 304.682 211.536 299.802 217.557 299.802Z" fill="white"/>
</mask>
<g mask="url(#mask4_116_2)">
<path d="M206.656 299.802H228.458V383.511H206.656V299.802Z" fill="#759954"/>
</g>
</g>
<mask id="mask5_116_2" style="mask-type:luminance" maskUnits="userSpaceOnUse" x="412" y="304" width="15" height="79">
<path d="M412.838 304.338H426.078V382.104H412.838V304.338Z" fill="white"/>
</mask>
<g mask="url(#mask5_116_2)">
<mask id="mask6_116_2" style="mask-type:luminance" maskUnits="userSpaceOnUse" x="412" y="304" width="15" height="79">
<path d="M426.078 310.953V375.469C426.078 377.224 425.38 378.906 424.14 380.146C422.896 381.39 421.213 382.083 419.458 382.083C417.703 382.083 416.021 381.39 414.781 380.146C413.536 378.906 412.838 377.224 412.838 375.469V310.953C412.838 309.198 413.536 307.515 414.781 306.276C416.021 305.031 417.703 304.338 419.458 304.338C421.213 304.338 422.896 305.031 424.14 306.276C425.38 307.515 426.078 309.198 426.078 310.953Z" fill="white"/>
</mask>
<g mask="url(#mask6_116_2)">
<path d="M426.078 304.338V382.104H412.838V304.338H426.078Z" fill="#628246"/>
</g>
</g>
<mask id="mask7_116_2" style="mask-type:luminance" maskUnits="userSpaceOnUse" x="401" y="299" width="23" height="85">
<path d="M401.948 299.802H423.745V383.511H401.948V299.802Z" fill="white"/>
</mask>
<g mask="url(#mask7_116_2)">
<mask id="mask8_116_2" style="mask-type:luminance" maskUnits="userSpaceOnUse" x="401" y="299" width="23" height="85">
<path d="M412.844 299.802C418.864 299.802 423.745 304.682 423.745 310.703V372.589C423.745 378.61 418.864 383.49 412.844 383.49C406.828 383.49 401.948 378.61 401.948 372.589V310.703C401.948 304.682 406.828 299.802 412.844 299.802Z" fill="white"/>
</mask>
<g mask="url(#mask8_116_2)">
<path d="M401.948 299.802H423.745V383.511H401.948V299.802Z" fill="#759954"/>
</g>
</g>
<mask id="mask9_116_2" style="mask-type:luminance" maskUnits="userSpaceOnUse" x="404" y="307" width="6" height="14">
<path d="M404.167 307.859H409.161V320.411H404.167V307.859Z" fill="white"/>
</mask>
<g mask="url(#mask9_116_2)">
<mask id="mask10_116_2" style="mask-type:luminance" maskUnits="userSpaceOnUse" x="404" y="307" width="6" height="14">
<path d="M406.661 307.859C408.042 307.859 409.161 308.979 409.161 310.359V317.896C409.161 319.276 408.042 320.396 406.661 320.396C405.281 320.396 404.167 319.276 404.167 317.896V310.359C404.167 308.979 405.281 307.859 406.661 307.859Z" fill="white"/>
</mask>
<g mask="url(#mask10_116_2)">
<path d="M404.167 307.859H409.161V320.391H404.167V307.859Z" fill="#628C38"/>
</g>
</g>
<mask id="mask11_116_2" style="mask-type:luminance" maskUnits="userSpaceOnUse" x="208" y="307" width="6" height="14">
<path d="M208.562 307.859H213.557V320.411H208.562V307.859Z" fill="white"/>
</mask>
<g mask="url(#mask11_116_2)">
<mask id="mask12_116_2" style="mask-type:luminance" maskUnits="userSpaceOnUse" x="208" y="307" width="6" height="14">
<path d="M211.057 307.859C212.437 307.859 213.557 308.979 213.557 310.359V317.896C213.557 319.276 212.437 320.396 211.057 320.396C209.682 320.396 208.562 319.276 208.562 317.896V310.359C208.562 308.979 209.682 307.859 211.057 307.859Z" fill="white"/>
</mask>
<g mask="url(#mask12_116_2)">
<path d="M208.562 307.859H213.557V320.391H208.562V307.859Z" fill="#628C38"/>
</g>
</g>
<path d="M269.875 487.141C300.49 473.828 330.635 474.823 360.323 490.115" stroke="#628246" stroke-width="8.99433" stroke-linecap="round"/>
<path d="M267.703 486.042C299.458 470.235 331.141 470.401 362.745 486.537" stroke="#759954" stroke-width="11.9924" stroke-linecap="round"/>
</g>
<defs>
<clipPath id="clip0_116_2">
<rect width="630" height="585" fill="white"/>
</clipPath>
</defs>
</svg>
